<svg width="300" height="241" viewBox="0 0 300 241" fill="none" xmlns="http://www.w3.org/2000/svg">
<path fill-rule="evenodd" clip-rule="evenodd" d="M172.669 240.883C208.585 240.883 240.102 214.167 222.402 177.88C204.702 141.594 270.47 142.766 289.789 117.687C313.349 87.1016 306.526 -42.7267 155.277 36.4229C131.048 49.1018 68.8243 23.3794 48.1843 36.1424C23.889 51.1657 -10.293 81.9285 23.889 113.441C40.7265 128.963 -19.6397 169.252 6.79951 205.34C32.5975 240.553 50.6814 206.985 89.9585 214.167C129.236 221.349 145.996 240.883 172.669 240.883Z" fill="#FF7F50"/>
<path d="M130.983 177.754C130.983 177.754 139.253 173.864 142.34 171.158C145.427 168.452 149.266 161.728 149.266 161.728C149.266 161.728 191.426 192.176 218.916 187.833C225.25 186.832 237.591 182.622 238.378 175.204C240.527 154.948 210.793 149.772 217.288 139.5C221.253 133.23 233.569 142.562 233.569 142.562L284.652 167.688C284.652 167.688 267.004 211.191 224.177 212.934C171.494 215.079 130.983 177.754 130.983 177.754Z" fill="white"/>
<path fill-rule="evenodd" clip-rule="evenodd" d="M90.4825 7.38901C90.0031 7.20079 87.4282 4.048 84.1593 3.47417C82.6739 3.21342 84.0221 5.10487 82.3873 5.12189C77.5184 5.17259 69.6058 4.25784 68.14 5.12189C67.0506 5.76202 69.4499 7.99831 68.14 8.10098C55.7822 9.06962 36.9295 21.4085 32.8392 27.3946C31.5375 29.2997 42.0655 26.0675 40.3881 27.0093C38.5054 28.0664 36.4173 34.988 35.1689 40.3338C34.3046 44.015 33.7604 48.7526 33.5684 53.9064C33.4083 58.3559 33.4723 59.0921 34.1126 61.5249C34.8488 64.2458 35.425 65.0461 36.4173 64.662C36.7694 64.5339 36.9295 64.0538 36.9295 63.1575C36.9295 62.4532 37.3136 60.3405 37.7938 58.4519L38.6261 55.0588L38.9782 56.4672C39.4263 58.0998 42.0512 63.1575 44.42 66.8387C44.5478 67.0341 45.0974 66.7856 45.5931 65.5875C46.0448 64.4958 45.8615 62.7517 46.6288 60.8824C48.3766 56.6245 51.8085 51.0885 55.7822 46.6571C61.6552 40.1078 63.6037 32.5283 69.1089 26.4441C79.3828 15.0896 92.2773 8.09364 90.4825 7.38901Z" fill="white"/>
<path fill-rule="evenodd" clip-rule="evenodd" d="M40.534 28.5543C38.886 29.8795 36.4396 40.6291 36.3976 40.8088C35.5333 44.49 34.7002 57.2736 35.5518 59.6939C36.4034 62.1142 38.788 53.3896 38.788 53.3896C38.788 53.3896 42.3923 62.7488 45.5771 65.3149C45.7131 65.4245 41.7916 53.7355 40.534 46.9118C38.874 37.9041 41.472 27.8 40.534 28.5543Z" fill="#E7EAEE"/>
<path fill-rule="evenodd" clip-rule="evenodd" d="M101.962 216.817C105.035 216.145 110.22 213.804 112.206 213.003C114.191 212.203 120.24 203.66 122.417 194.025C123.986 186.919 124.786 176.803 123.89 175.107C123.757 174.866 123.273 170.266 124.562 171.768C127.427 175.107 130.828 180.348 141.559 170.956C144.482 168.398 148.356 165.097 147.336 162.178C144.482 154.012 132.111 137.569 130.225 136.324C127.97 134.835 116.572 136.1 99.6097 131.094C80.3734 125.416 72.3633 108.697 64.8355 110.873C58.7477 112.633 44.1619 123.449 40.5013 130.299C23.2197 162.635 44.1619 185.293 48.9312 191.801L53.562 193.801L53.722 197.931L53.9461 200.523C54.3622 205.485 54.5223 205.933 56.763 207.598C62.3649 211.855 73.4087 215.825 83.396 217.233C88.0376 217.873 98.121 217.649 101.962 216.817Z" fill="white"/>
<path fill-rule="evenodd" clip-rule="evenodd" d="M55.3832 196.419L55.6073 199.012C56.0234 203.974 56.1835 204.422 58.4242 206.086C61.729 208.598 66.9276 211.009 72.6859 212.854C76.6886 214.136 80.9617 215.144 85.0572 215.721C89.6988 216.362 99.7822 216.138 103.624 215.305C105.522 214.894 89.9043 202.624 80.7037 206.086C73.638 208.745 56.9845 188.464 63.7556 183.166C71.3513 177.222 57.4327 153.779 56.9845 148.69C56.5364 143.6 54.7715 142.384 54.72 142.563C54.6685 142.742 54.6685 143.35 54.807 144.818C55.4042 151.142 55.3832 196.419 55.3832 196.419Z" fill="#E7EAEE"/>
<path fill-rule="evenodd" clip-rule="evenodd" d="M53.7156 147.237C54.3877 147.106 55.0385 147.545 55.1693 148.217C57.5853 160.629 67.8045 169.032 86.0779 173.426C104.46 177.846 116.981 177.608 123.578 172.89C124.135 172.491 123.72 175.902 123.312 176.164C119.009 178.923 104.379 183.04 86.921 179.319C64.5987 174.561 54.1177 155.791 52.7357 148.691C52.6048 148.019 53.0436 147.368 53.7156 147.237Z" fill="#5352ED"/>
<path fill-rule="evenodd" clip-rule="evenodd" d="M44.4069 124.843C45.0012 124.503 67.1723 149.913 97.5986 155.664C128.025 161.416 135.392 157.758 136.576 149.913C136.678 149.236 137.31 148.77 137.987 148.872C138.664 148.974 139.13 149.606 139.027 150.283C137.527 160.226 123.448 162.591 97.1815 158.108C71.2452 153.683 53.4633 143.167 43.9466 126.535C43.6066 125.94 43.8127 125.183 44.4069 124.843Z" fill="#5352ED"/>
<path fill-rule="evenodd" clip-rule="evenodd" d="M172.111 123.434C171.279 123.146 170.383 122.506 169.806 121.769L168.846 120.585L172.239 117.224C177.457 112.102 181.458 106.852 184.915 100.61C186.068 98.5294 188.981 91.5831 188.981 90.9109C188.981 90.6868 189.333 89.7905 189.749 88.8622C190.389 87.5177 190.869 87.0055 192.246 86.2373C193.878 85.277 195.735 84.9568 196.535 85.501C198.072 86.5254 198.072 89.7585 196.535 95.3283C194.839 101.442 192.566 105.828 187.86 112.134C187.124 113.094 185.748 114.983 184.755 116.295C182.098 119.817 180.37 121.513 178.033 122.826C175.728 124.106 174.384 124.266 172.111 123.434ZM195.095 120.553L197.4 121.577C197.878 121.798 203.15 124.331 209.483 127.374C219.693 132.28 232.661 138.511 232.74 138.511C232.868 138.511 233.468 137.122 233.604 135.502C233.924 132.013 235.108 127.275 236.485 123.978C237.125 122.506 237.637 120.665 237.637 120.505C237.637 120.432 237.117 120.222 236.265 119.879C235.251 119.469 233.767 118.871 232.131 118.088C224.065 114.215 208.283 106.308 206.331 105.124C204.41 104.003 204.026 103.907 204.026 104.643C204.026 105.604 202.073 110.053 200.569 112.454C199.768 113.767 198.2 116.135 197.08 117.704L195.095 120.553ZM232.195 132.749C233.113 133.281 231.523 134.061 231.139 134.189C228.877 134.382 226.214 133.956 224.033 132.685C222.892 131.876 213.91 126.886 207.951 123.576C205.227 122.062 203.135 120.9 202.713 120.649C201.369 119.849 200.089 118.984 199.864 118.728C199.192 117.864 199.832 117.48 201.721 117.64C202.857 117.736 230.213 131.6 232.195 132.749ZM102.071 216.553C104.541 216.013 108.374 214.396 110.814 213.365L110.818 213.364C111.414 213.113 111.926 212.897 112.315 212.74C114.3 211.939 120.35 203.397 122.526 193.762C124.095 186.655 124.895 176.54 123.999 174.843C123.459 173.861 126.668 177.156 129.059 179.611L129.06 179.611L129.06 179.611C129.785 180.356 130.434 181.023 130.881 181.469C144.838 195.33 165.613 206.47 187.188 211.688C197.944 214.313 205.594 215.241 215.87 215.241C233.124 215.241 246.728 211.848 259.084 204.389C259.671 204.035 260.221 203.709 260.745 203.399L260.746 203.399C265.053 200.849 267.619 199.33 274.642 191.425C282.519 182.558 289.527 161.975 291.864 154.868C292.888 151.667 295.385 138.935 295.385 135.758C295.385 131.996 294.072 130.22 292.28 128.396C289.111 125.29 284.821 124.17 281.268 125.515L279.603 126.155L279.091 124.458C278.355 121.897 276.818 119.849 274.45 118.312C270.928 115.975 270.416 115.815 267.247 115.815C264.782 115.815 264.11 115.943 262.542 116.68L260.717 117.512L260.333 116.359C259.597 113.991 257.127 110.688 255.211 109.733C253.512 108.886 250.571 108.808 248.521 109.189C244.039 110.021 240.838 112.102 239.526 115.015C239.142 115.911 238.662 116.616 238.47 116.616C238.309 116.616 232.003 114.854 224.481 111.525C223.225 110.968 222.045 110.445 220.936 109.953L220.901 109.937C207.392 103.95 204.464 102.652 204.73 101.026C204.954 99.6498 204.89 98.8815 204.506 97.6972C203.834 95.7125 203.066 95.1683 200.889 95.1683C199.16 95.1683 199.16 95.1683 199.352 94.304C200.377 89.4063 200.345 86.5894 199.256 84.7968C198.52 83.6124 197.656 83.1322 195.671 82.8441C194.519 82.6841 193.975 82.7801 192.694 83.4844C191.83 83.9325 191.094 84.2526 191.03 84.1886C190.965 84.1246 191.19 82.364 191.542 80.2833C194.167 64.8861 192.139 51.6199 185.449 37.5351C185.384 37.4003 185.31 37.241 185.225 37.0586C183.191 32.692 175.013 15.1339 151.624 6.27428C150.566 5.87327 149.564 5.48551 148.601 5.11286C140.634 2.029 135.337 -0.0211108 122.558 0.000164023C108.235 0.0240097 103.384 2.04886 93.9407 6.37031C92.6283 6.97852 91.4759 7.33064 91.3799 7.2026C91.2838 7.04254 90.6756 6.65841 90.0674 6.3383C89.4592 6.0182 88.1468 5.21793 87.1865 4.57771C84.4335 2.72108 82.737 1.95282 81.8727 2.14489C80.8803 2.40097 80.8803 3.23326 81.8727 3.61739C82.2888 3.77744 82.769 4.32162 82.961 4.86581C83.3772 6.0182 83.8573 6.14624 84.1454 5.18591C84.2735 4.8338 84.4655 4.57771 84.5616 4.64173C84.598 4.65994 84.7199 4.717 84.9059 4.80406L84.9061 4.80418L84.9062 4.80422L84.9067 4.80445C85.3748 5.02357 86.2479 5.43231 87.1865 5.89015C88.4989 6.53037 89.9394 7.2026 90.3235 7.36265C91.0278 7.61874 90.8037 7.8108 87.7627 9.60341C75.8866 16.5818 66.2194 27.4334 60.8096 39.7896C59.9773 41.6462 59.241 42.7986 58.4728 43.4388C56.5201 45.0714 52.6788 49.7129 51.7825 51.5376C51.3023 52.5299 50.278 54.0664 49.4777 54.9627C48.7095 55.859 47.8772 57.0114 47.5891 57.4916C47.333 58.0037 47.0769 58.3559 46.9809 58.2918C46.9169 58.1958 47.0129 56.6273 47.237 54.8027C47.7171 50.5452 47.7171 49.4249 47.333 49.3288C46.7568 49.1688 45.9245 51.4095 45.5724 54.1945C45.3163 55.891 45.2523 58.4519 45.4124 61.0768L45.6044 65.2382L43.3317 61.5569C42.5489 60.3241 41.7781 59.0913 41.2314 58.2168L41.2311 58.2164C40.8836 57.6606 40.6267 57.2496 40.5147 57.0754C39.6824 55.859 39.2023 54.0344 39.5544 53.4262C39.7464 53.0741 39.7144 52.914 39.3943 52.914C38.7221 52.914 37.4097 55.0588 36.5454 57.5236C36.1292 58.676 35.7131 59.6363 35.585 59.6363C35.1049 59.6363 35.329 48.1764 35.8411 44.4952C36.8975 37.2287 39.6824 28.2657 40.9308 28.2657C41.1869 28.2657 41.411 28.1377 41.411 27.9456C41.411 27.3694 40.5787 27.5935 39.9065 28.3297C38.402 29.9623 36.4173 34.988 35.1689 40.3338C34.3046 44.015 33.7604 48.7526 33.5684 53.9064C33.4083 58.3559 33.4723 59.0921 34.1125 61.5249C34.8488 64.2459 35.425 65.0461 36.4173 64.662C36.7694 64.534 36.9295 64.0538 36.9295 63.1575C36.9295 62.4533 37.3136 60.3405 37.7938 58.4519L38.6261 55.0588L38.9782 56.4672C39.4263 58.0998 42.0512 63.1575 44.42 66.8387C46.0526 69.3356 46.0846 69.4956 46.6288 73.4009C46.9169 75.6097 47.8132 80.9821 49.8939 89.2463C51.7323 96.5482 62.0675 103.792 64.648 105.6C64.9881 105.839 65.1935 105.983 65.227 106.02C65.5472 106.372 65.9953 106.564 66.2514 106.468C66.5395 106.372 66.6995 106.5 66.6995 106.852C66.6995 107.172 66.9236 107.588 67.1797 107.781C67.4998 108.005 67.7239 108.869 67.7879 110.373C67.948 113.382 70.1887 119.144 71.9173 121.033C73.0377 122.249 75.3745 122.762 77.9674 122.313C79.6639 122.057 80.1441 121.865 79.984 121.481C79.888 121.225 80.4962 121.545 81.3285 122.185C91.0598 129.612 100.919 134.061 111.995 135.982C116.284 136.718 123.391 137.134 127.264 136.846C130.689 136.622 130.689 136.622 130.529 137.295C130.305 138.191 130.593 138.735 135.299 146.706C139.044 153.012 139.364 153.428 143.525 157.685C152.36 166.808 161.996 173.883 172.911 179.357C183.187 184.478 199.592 188.736 214.589 190.08C229.587 191.425 240.358 177.66 240.326 174.139C240.262 169.305 239.59 166.136 237.957 163.063C236.357 160.086 235.3 159.062 230.499 155.861C225.153 152.308 221.856 149.395 219.679 146.29C218.303 144.337 217.791 142.128 217.791 140.944C217.791 140.175 218.783 138.447 220.255 138.095C221.6 137.743 221.856 137.775 223.36 138.511C224.257 138.927 226.594 140.015 228.514 140.944C230.467 141.84 232.355 142.736 232.74 142.928C233.872 143.243 234.351 145.46 234.61 146.661C234.668 146.93 234.715 147.147 234.756 147.282C235.204 148.946 237.325 151.096 238.694 151.827C241.097 153.112 247.017 153.284 248.65 151.524C249.066 151.075 250.445 150.524 250.73 150.691C251.014 150.858 252.042 152.244 252.042 153.364C252.074 155.285 253.066 157.045 255.179 158.806C259.181 162.135 262.286 162.935 265.423 161.463C267.055 160.694 268.393 160.394 268.393 160.394C268.393 160.394 269.728 162.097 269.808 162.679C270.437 167.227 277.17 169.134 278.963 169.326C279.374 169.367 280.173 169.191 280.986 169.013L280.986 169.013C282.071 168.774 283.18 168.53 283.413 168.793C283.87 169.309 275.762 182.718 274.642 184.414C263.982 200.42 243.239 210.215 217.855 211.239C201.369 211.912 181.106 207.302 163.532 198.915C152.296 193.505 142.341 186.879 131.681 177.596C129.825 175.996 127.68 174.171 126.912 173.531C126.144 172.923 124.319 170.842 122.911 168.921C120.542 165.72 119.197 164.568 119.197 165.656C119.197 166.136 120.734 169.081 122.494 171.994C123.199 173.147 123.647 173.947 123.487 173.819C123.327 173.691 122.814 175.996 122.334 178.941C120.766 188.384 118.173 197.699 115.548 203.493C114.108 206.63 111.346 208.973 110.513 209.613C107.44 211.95 102.84 213 96.4696 213.64C88.4029 214.441 76.5269 212.648 67.4678 209.255C65.067 208.359 58.8889 205.766 58.4728 205.478C58.4478 205.453 58.306 204.532 58.1081 203.247L58.108 203.247C58.0522 202.884 57.992 202.493 57.9286 202.084C56.7762 194.178 55.1757 163.735 55.1757 149.651C55.1757 143.825 55.1116 142.544 54.7275 142.544C53.9272 142.544 53.6071 143.313 53.255 146.065C52.4547 152.34 52.6148 185.087 53.4791 191.969L53.6711 193.538L52.5828 192.929C50.9182 191.969 44.5801 185.535 42.3713 182.558C40.5015 180.013 39.3901 176.753 38.5586 174.315C38.3652 173.747 38.187 173.225 38.0179 172.766C33.3763 159.897 35.0088 145.457 41.411 132.461C46.8528 121.385 53.5431 115.239 63.3384 112.262C64.9389 111.782 66.3474 111.27 66.5075 111.142C67.1157 110.565 63.2104 110.854 61.0656 111.526C54.0873 113.671 46.7888 119.529 41.8271 127.019C34.8488 137.519 31.7117 153.012 33.9205 166.232C34.4327 169.369 36.5134 176.156 37.0896 176.636C37.1406 176.687 37.4038 177.239 37.802 178.074C38.903 180.384 41.0353 184.858 42.5634 186.879C44.42 189.408 50.0219 194.914 52.3587 196.611L53.8312 197.667L54.0553 200.26C54.4714 205.221 54.6315 205.67 56.8722 207.334C62.4741 211.592 73.5178 215.561 83.5052 216.969C88.1468 217.61 98.2302 217.386 102.071 216.553ZM210.268 186.495C191.67 184.863 169.198 175.995 152.937 162.294C146.086 156.5 137.187 145.233 133.666 138.991C132.93 137.711 132.386 137.102 131.746 136.942C131.073 136.75 131.649 136.558 134.402 136.11C146.022 134.125 157.322 129.292 166.445 122.409L167.79 121.417L168.174 122.345C169.038 124.426 172.367 126.539 174.832 126.539C175.824 126.539 179.154 125.034 181.17 123.658L182.547 122.73L183.667 123.85C184.691 124.874 184.883 124.938 186.804 124.938C189.013 124.938 191.67 123.946 193.142 122.538L193.943 121.801L196.215 123.306C197.432 124.17 200.825 126.059 203.738 127.563C208.091 129.804 212.701 132.397 217.086 135.086L217.791 135.534L217.118 136.43C216.414 137.391 215.102 139.215 215.102 142C215.102 145.137 218.364 150.773 224.609 154.644C229.515 157.685 237.957 163.667 237.637 172.41C237.599 173.466 236.421 176.092 234.852 178.46C233.828 179.965 230.979 182.206 228.386 183.518C223.969 185.727 216.19 187.007 210.268 186.495ZM39.5864 42.7986C40.4507 42.9907 41.0269 43.2788 40.8988 43.4068C40.4827 43.823 38.274 43.6309 37.7618 43.1187C36.9615 42.3505 37.1536 41.8063 38.274 41.5822C38.8501 41.4862 39.7144 41.006 40.1946 40.5258C40.6748 40.0457 41.0909 39.8216 41.0909 39.9817C41.0909 40.3978 39.4904 41.8703 38.6901 42.1904C38.1779 42.4145 38.338 42.5105 39.5864 42.7986ZM52.3267 43.3108C53.255 42.7986 53.0629 42.4465 51.9746 42.6065C50.8862 42.7666 50.8222 42.6386 51.5264 41.5502C51.8145 41.134 51.9746 40.5258 51.9106 40.2057C51.8145 39.7896 51.5904 39.9817 51.0783 41.006C50.6941 41.7423 50.15 42.3505 49.8939 42.3505C49.0936 42.3505 49.0296 42.9907 49.7978 43.2788C50.7902 43.6949 51.5584 43.6949 52.3267 43.3108ZM41.251 25.8329C40.4827 25.9609 38.0819 26.9213 35.9692 27.9776C33.8244 29.002 31.9998 29.8662 31.8718 29.8342C28.6067 29.4821 33.1522 24.0403 41.411 18.4704C49.3177 13.1246 54.6635 10.3076 59.6252 8.86716C62.7302 7.97086 66.2194 7.84281 67.2117 8.57906C67.7559 8.9952 67.5638 9.02721 65.195 9.05922C60.0733 9.05922 54.1513 11.6841 44.5161 18.1183C39.5224 21.4474 33.7284 26.217 33.7284 26.9853C33.7284 27.1453 34.6567 26.8252 35.8091 26.313C38.274 25.1927 40.8028 24.6165 41.9232 24.8726C43.1076 25.1927 42.8515 25.6088 41.251 25.8329ZM53.6391 28.5858C56.6482 27.9776 56.7762 27.9456 56.7762 27.6255C56.7762 27.4654 55.6238 27.3054 54.1833 27.2414L51.5904 27.1453L53.9913 24.4244C55.3037 22.9199 56.8402 21.4154 57.3844 21.0633C58.5688 20.295 58.6328 19.7508 57.6725 19.4307L56.9363 19.2066L57.7365 18.9186C58.1847 18.7585 59.017 18.6945 59.5931 18.7905C60.4574 18.9186 60.6495 18.8545 60.5535 18.4064C60.4574 17.9582 60.1053 17.8622 58.5368 17.8942C53.9592 17.9582 52.0066 19.1746 55.5918 19.7508C56.5841 19.9109 57.4164 20.167 57.4164 20.327C57.4164 20.4551 57.2564 20.5831 57.0643 20.5831C56.4561 20.5831 51.3023 25.8009 50.6621 27.0813C49.6698 28.9699 50.214 29.258 53.6391 28.5858ZM74.7663 16.1656C73.8379 16.2296 73.6139 16.3897 73.6779 16.8378L73.6878 16.9031C73.7237 17.1398 73.7444 17.2759 73.6913 17.3172C73.6196 17.3729 73.4137 17.2561 72.9296 16.9815L72.9296 16.9815L72.8456 16.9339C72.2374 16.6138 72.1734 16.4537 72.5255 16.1976C72.7496 16.0056 73.3578 15.7175 73.8379 15.6214L74.7342 15.3974L74.062 14.6931C73.7099 14.277 73.5178 13.8929 73.6139 13.7648C73.87 13.5087 77.007 13.8608 77.4552 14.213C77.6472 14.373 77.9353 14.341 78.1274 14.1489C78.5755 13.7008 79.1838 14.0529 79.1838 14.7571C79.1838 15.1413 79.0877 15.1733 78.7996 14.8852C78.5435 14.6291 78.3195 14.6291 78.0314 14.8532C77.7753 15.0773 77.5832 15.0773 77.4232 14.8212C77.3271 14.6611 76.7189 14.5011 76.0787 14.5011C75.4881 14.5011 75.2088 14.5011 75.1518 14.6136C75.1007 14.7146 75.2283 14.9061 75.4705 15.2693C75.9811 16.0671 75.9509 16.0696 74.7771 16.1647L74.7663 16.1656ZM69.9006 7.65075C69.9006 7.23461 69.5165 6.49836 69.0363 6.0182L68.14 5.12189L72.9417 5.31396C75.5985 5.442 78.6076 5.7301 79.6639 6.0182C80.7203 6.27428 81.9367 6.46635 82.3848 6.46635C83.0571 6.46635 82.929 6.3383 81.6806 5.66608C79.5039 4.5457 76.7189 4.00151 71.3731 3.61739C64.971 3.16923 61.7379 3.77744 62.3461 5.37798C62.4421 5.69809 62.9543 5.85814 63.7225 5.85814C65.2911 5.85814 67.8519 6.78646 68.7162 7.65075C69.6445 8.57906 69.9006 8.57906 69.9006 7.65075ZM54.2793 92.4154C56.8722 95.7445 60.2974 99.5218 61.8979 100.802C62.8582 101.57 63.6905 102.211 63.7545 102.211C63.7866 102.211 63.0823 100.738 62.186 98.9456C58.5688 91.7431 56.4561 84.5727 55.4637 76.3139C55.2397 74.4893 54.8876 72.9528 54.5034 72.3126C53.7352 71.0321 53.7352 69.3676 54.5354 67.799C54.9516 66.9668 55.1756 65.9104 55.1756 64.758V62.9974L53.6391 64.598C52.1346 66.1665 50.6941 66.8067 50.6941 65.8464C50.6941 65.1422 53.0629 61.749 54.3114 60.6927C55.3037 59.8604 55.4317 59.5723 55.7518 57.0754C55.9759 55.5709 56.4881 52.914 56.9042 51.1534C57.3524 49.3928 57.6085 47.8883 57.5444 47.8243C57.3204 47.6002 49.7978 56.2398 48.7735 58.9961C48.5486 59.6012 47.9412 60.6606 47.461 61.3009L46.6288 62.3695C46.6288 62.3695 46.8873 63.8659 47.1729 65.7464C47.4615 67.6464 47.597 68.9525 47.7176 70.1158C47.8789 71.672 48.0138 72.9727 48.4534 75.0975C48.9655 77.7224 49.4777 79.9952 49.6058 80.1552C49.7018 80.3473 50.1179 81.8198 50.5341 83.4523C51.4304 87.0696 52.9349 90.6548 54.2793 92.4154ZM184.179 122.698L183.507 122.025C183.507 122.025 194.664 107.85 196.663 102.627C198.189 98.6408 199.087 97.5105 200.298 97.5105C200.976 97.5105 201.529 97.6651 201.785 98.0493C202.233 98.7215 202.665 99.5538 202.089 102.403C201.129 107.012 199.656 110.053 195.239 116.616C194.214 118.12 192.902 119.785 192.326 120.361C190.981 121.609 187.956 122.89 186.196 123.178C185.076 123.338 184.755 123.274 184.179 122.698Z" fill="#00160A"/>
<path d="M272.817 154.012C276.8 143.162 276.197 140.85 275.506 140.624C275.506 140.624 273.985 141.488 273.313 143.313C272.065 146.738 267.791 155.701 266.191 157.301C264.302 159.19 264.302 159.19 262.382 159.19C260.461 159.19 254.922 156.297 254.167 153.446C252.961 148.885 258.156 133.037 258.284 132.141L257.42 131.533C256.844 132.077 249.349 154.804 239.494 148.882C238.365 148.204 235.973 145.009 235.781 143.313C234.714 138.383 239.608 121.145 240.44 117.604C241.185 114.435 245.064 111.494 249.833 111.494C257.164 111.494 256.179 117.902 259.463 120.16C260.918 121.16 263.309 119.346 264.046 119.208C268.176 118.44 269.758 119.335 272.785 121.737C275.122 123.592 276.851 127.262 278.754 128.556C279.811 129.274 280.933 128.292 281.3 128.107C282.806 127.351 286.038 127.915 286.934 128.556C288.248 129.128 291.468 132.224 291.976 134.024C294.282 142.183 287.002 160.271 284.254 163.664C279.704 169.281 268.835 164.863 272.817 154.012Z" fill="white"/>
<path fill-rule="evenodd" clip-rule="evenodd" d="M88.787 124.281C97.558 129.818 106.602 133.436 116.909 134.428C125.04 135.196 136.003 134.14 143.878 131.579C150.504 129.434 159.467 123.493 165.453 118.467C177.073 108.736 184.403 93.5357 187.604 77.4023C188.053 75.1295 188.736 69.4165 188.704 63.7506C188.704 57.1564 185.802 39.1362 177.009 28.7459C158.873 7.31581 129.062 -2.33782 104.007 5.91058C94.9695 8.88605 85.3467 14.277 78.0803 21.3194C68.9252 30.2504 62.1709 42.4145 59.482 54.8347C56.665 67.9591 60.3294 83.6444 66.6995 96.5127C71.7893 106.756 80.1761 118.807 88.787 124.281ZM174.256 85.5971C168.238 103.683 152.553 117.192 132.834 121.289C129.825 121.897 127.744 122.121 123.519 122.185C120.542 122.281 117.565 122.249 116.956 122.185C103.16 120.521 92.6603 115.431 82.993 105.764C78.7676 101.506 76.975 99.2017 74.3501 94.6561C70.2207 87.4537 68.012 80.0912 67.3398 71.2242C65.035 40.846 86.7703 15.5254 117.373 12.9005C129.377 11.8762 142.693 15.5574 152.809 22.7278C156.554 25.3847 163.34 32.107 165.453 35.2441C166.317 36.4925 174.704 48.7526 176.176 55.795C178.065 64.9501 177.329 76.41 174.256 85.5971Z" fill="white"/>
<path fill-rule="evenodd" clip-rule="evenodd" d="M188.715 63.7506C188.715 85.2366 178.552 108.727 165.435 118.758C159.177 123.545 150.999 129.34 143.878 131.579C133.441 134.86 116.909 134.428 116.909 134.428C116.909 134.428 133.775 132.174 140.025 129.658C157.947 122.446 167.73 111.374 173.772 100.75C185.697 79.7807 188.715 63.2286 188.715 63.7506Z" fill="#E7EAEE"/>
<path fill-rule="evenodd" clip-rule="evenodd" d="M117.277 118.344C108.73 117.256 100.247 114.215 93.3966 109.701C89.3312 107.044 83.1851 100.802 80.2081 96.3527C75.9507 89.9505 73.1337 83.1002 71.7572 75.7377C70.7649 70.3919 70.7969 62.1652 71.7893 57.3955C72.8136 52.5299 74.126 48.8166 76.4628 44.1111C79.1838 38.6692 82.0647 34.6679 86.3862 30.3464C93.7487 22.9839 102.296 18.3103 112.475 16.0696C115.772 15.3654 127.712 14.7892 128.128 15.3333C128.224 15.4934 128.865 15.9095 129.537 16.2617C130.209 16.6458 132.002 17.9902 133.474 19.3027C135.683 21.2233 136.675 22.4397 138.596 25.4488C139.908 27.4974 140.965 29.3541 140.965 29.5141C140.965 29.8662 141.989 30.5065 142.565 30.5065C143.365 30.5065 143.91 28.1057 144.07 23.8802C144.166 21.5434 144.358 19.6228 144.486 19.6228C144.934 19.6228 149.864 22.3437 152.168 23.8802C156.682 26.8892 161.195 31.1147 164.525 35.5322C166.029 37.5168 166.253 38.029 166.253 39.2454C166.253 40.3658 166.573 41.2301 167.566 42.9587C170.062 47.3121 172.015 52.786 173.199 58.836C173.968 62.9014 173.968 70.584 173.167 74.8414C170.991 86.5574 164.525 98.2093 156.106 105.604C148.967 111.846 141.381 115.687 132.418 117.576C129.345 118.248 120.126 118.696 117.277 118.344ZM94.3889 96.4487C94.677 96.1286 94.8691 95.6485 94.773 95.4244C94.7442 95.3571 94.3434 95.1687 93.7567 94.8929C92.3891 94.2499 90.0113 93.1321 88.9809 91.9672C84.8835 87.2936 83.379 83.8045 82.4507 76.602C81.5544 69.5917 82.3073 64.8524 83.9232 57.2355C84.7114 53.5198 86.8064 50.4506 88.1098 48.5412C88.9961 47.2428 89.5164 46.4806 89.0111 46.4158C87.7627 46.2238 87.5706 46.3198 86.2581 47.5682C83.4412 50.2571 82.1608 52.4019 80.8163 56.5312C78.7356 62.9974 78.3335 80.4722 82.4507 88.35C86.5678 96.2278 93.6526 97.281 94.3889 96.4487ZM139.908 69.5596C139.365 74.5324 137.059 81.7238 134.37 84.8608C133.122 86.3333 128.539 88.8622 124.671 88.35C120.935 87.8553 118.013 86.1092 115.516 82.364C113.371 79.1309 112.264 75.2065 111.515 70.2639C110.221 61.729 115.868 51.7936 118.301 49.3288C120.766 46.8 122.526 45.9037 124.767 45.8717C126.944 45.8717 128.352 46.3518 130.561 47.9203C134.594 50.7373 140.965 59.8966 139.908 69.5596ZM96.7577 43.0867C97.3979 42.3505 97.4939 41.9983 97.3019 40.6219C97.1738 39.3414 96.9177 38.8293 96.2455 38.2851C95.0611 37.3248 93.5886 37.3248 92.5003 38.3491C91.732 39.0854 91.636 39.3414 91.732 41.102C91.828 42.9907 91.892 43.1187 92.9484 43.6949C94.3569 44.4632 95.7333 44.2391 96.7577 43.0867ZM116.732 23.336C110.97 27.4654 108.474 29.162 105.881 30.7625C103.832 32.043 103.192 32.075 103.192 30.9226C103.192 30.3144 103.64 29.6422 104.792 28.5858L106.393 27.1133L103.288 26.6972C99.7987 26.249 96.4056 25.2887 95.6693 24.5525C94.4529 23.304 95.5093 23.0159 98.9664 23.6562C100.503 23.9122 103.48 24.2323 105.593 24.2964L109.434 24.4564L112.219 22.4397C118.333 18.0222 124.671 15.5254 127.712 16.2937C129.601 16.7418 129.377 17.254 127.232 17.5101C124.767 17.7982 123.263 18.6305 116.732 23.336Z" fill="white"/>
<path d="M124.959 83.9645C124.959 83.8045 125.151 83.6444 125.407 83.6444C125.663 83.6444 125.984 83.8045 126.08 83.9645C126.176 84.1566 125.984 84.2846 125.631 84.2846C125.247 84.2846 124.959 84.1566 124.959 83.9645Z" fill="white"/>
<path d="M126.88 83.6764C126.88 83.3243 127.68 83.0042 128.576 83.0042C129.281 83.0362 129.281 83.0362 128.672 83.4843C127.968 84.0285 126.88 84.1246 126.88 83.6764Z" fill="white"/>
<path d="M121.918 82.8441C121.822 82.588 121.694 82.1399 121.598 81.8838C121.502 81.5637 121.662 81.4036 122.078 81.4036C122.43 81.4036 122.718 81.5957 122.718 81.8518C122.718 82.1079 122.814 82.524 122.91 82.8121C123.039 83.1642 122.943 83.3243 122.59 83.3243C122.302 83.3243 121.982 83.1002 121.918 82.8441Z" fill="white"/>
<path d="M123.615 82.0439C123.455 81.0835 123.807 80.7634 124.959 80.7634C125.311 80.7634 125.599 81.0835 125.727 81.6277C125.984 82.556 125.567 83.0042 124.447 83.0042C123.935 83.0042 123.711 82.7801 123.615 82.0439Z" fill="white"/>
<path d="M120.35 82.2039C119.741 81.7238 119.741 81.7238 120.414 81.7238C120.83 81.7238 121.118 81.9158 121.118 82.2039C121.118 82.7801 121.118 82.7801 120.35 82.2039Z" fill="white"/>
<path d="M126.784 82.1719C126.368 81.7558 126.56 80.5073 127.072 80.3153C128 79.9632 128.416 80.1232 128.608 80.9555C128.736 81.4357 128.801 81.8518 128.736 81.8838C128.48 82.1719 126.976 82.364 126.784 82.1719Z" fill="white"/>
<path d="M129.633 81.4997C129.537 81.4037 129.441 80.9875 129.441 80.6034C129.441 80.0592 129.697 79.8351 130.465 79.6751C131.137 79.547 131.553 79.611 131.745 79.8671C132.066 80.3793 132.066 81.0195 131.777 81.1796C131.201 81.4997 129.857 81.6917 129.633 81.4997Z" fill="white"/>
<path d="M118.877 80.5073C118.877 80.1232 119.165 79.8031 119.581 79.7071C120.414 79.483 120.382 79.451 120.542 80.2833C120.606 80.7634 120.446 80.9555 119.773 81.0195C119.069 81.1155 118.877 80.9875 118.877 80.5073Z" fill="white"/>
<path d="M121.31 80.5394C120.862 80.0592 121.15 79.1629 121.758 79.1629C122.174 79.1629 122.398 79.387 122.398 79.7711C122.398 80.3793 121.662 80.8915 121.31 80.5394Z" fill="white"/>
<path d="M123.231 79.579C122.975 78.9708 123.519 78.5227 124.575 78.5227C125.055 78.5227 125.279 78.7147 125.279 79.1309C125.279 79.483 124.991 79.8031 124.575 79.9311C123.519 80.1872 123.455 80.1872 123.231 79.579Z" fill="white"/>
<path d="M132.482 79.483C132.578 79.3229 132.738 79.1629 132.834 79.1629C132.93 79.1629 132.898 79.3229 132.802 79.483C132.706 79.6751 132.546 79.8031 132.45 79.8031C132.354 79.8031 132.386 79.6751 132.482 79.483Z" fill="white"/>
<path d="M126.112 78.9388C125.856 78.2986 126.176 77.9785 127.2 77.8184C127.776 77.7544 128.032 77.8825 128.096 78.3306C128.32 79.387 126.496 79.9632 126.112 78.9388Z" fill="white"/>
<path d="M118.429 78.3946C118.141 77.3383 118.205 77.2422 119.037 77.2422C119.485 77.2422 119.837 77.3703 119.837 77.5303C119.837 77.6904 119.934 78.0425 120.03 78.2986C120.126 78.6187 119.934 78.8108 119.389 78.9068C118.781 79.0348 118.557 78.9068 118.429 78.3946Z" fill="white"/>
<path d="M129.121 78.0425C129.121 77.4663 129.345 77.2102 129.953 77.0502C130.849 76.8261 131.361 77.2743 131.361 78.2986C131.361 78.7147 131.105 78.8428 130.241 78.8428C129.249 78.8428 129.121 78.7468 129.121 78.0425Z" fill="white"/>
<path d="M117.469 78.0425C117.373 77.7864 117.437 77.5623 117.597 77.5623C117.789 77.5623 117.917 77.7864 117.917 78.0425C117.917 78.2986 117.853 78.5227 117.789 78.5227C117.725 78.5227 117.597 78.2986 117.469 78.0425Z" fill="white"/>
<path d="M120.702 78.2986C120.254 77.8825 120.51 76.9862 121.086 76.8261C121.438 76.7301 121.79 76.7621 121.886 76.8581C122.27 77.2102 122.046 78.1385 121.566 78.3306C120.958 78.5547 120.958 78.5547 120.702 78.2986Z" fill="white"/>
<path d="M132.13 78.0745C131.777 77.1462 132.162 76.442 133.058 76.3459C133.73 76.2499 133.922 76.378 133.922 76.8901C133.922 77.9465 133.57 78.5227 132.93 78.5227C132.578 78.5227 132.226 78.3306 132.13 78.0745Z" fill="white"/>
<path d="M122.943 77.6584C122.558 77.3063 122.686 76.666 123.231 76.474C123.839 76.2499 125.119 76.8901 124.767 77.2422C124.319 77.6264 123.167 77.9145 122.943 77.6584Z" fill="white"/>
<path d="M125.727 76.8581C125.439 76.41 126.464 75.6417 127.296 75.6417C127.68 75.6417 127.84 75.8338 127.776 76.1859C127.648 76.8261 126.016 77.3383 125.727 76.8581Z" fill="white"/>
<path d="M116.956 76.634C116.956 76.474 116.86 76.1219 116.764 75.8338C116.668 75.5457 116.7 75.3216 116.892 75.3216C117.309 75.3216 117.629 76.538 117.245 76.7941C117.085 76.8901 116.956 76.8261 116.956 76.634Z" fill="white"/>
<path d="M117.821 75.8978C117.629 75.1935 118.013 74.6814 118.749 74.6814C119.165 74.6814 119.581 75.9298 119.325 76.3459C118.973 76.8901 117.981 76.57 117.821 75.8978Z" fill="white"/>
<path d="M120.062 76.0578C119.581 75.5777 119.87 74.4253 120.51 74.2652C120.99 74.1372 121.246 74.2973 121.502 74.8734C121.694 75.2896 121.79 75.7057 121.726 75.7697C121.406 76.0578 120.254 76.2819 120.062 76.0578Z" fill="white"/>
<path d="M128.704 76.0578C128.288 75.6417 128.48 75.3856 129.441 75.0335C130.241 74.7774 130.465 74.8094 130.625 75.1935C130.913 75.9618 129.313 76.6981 128.704 76.0578Z" fill="white"/>
<path d="M131.521 75.3216C131.201 74.8094 131.649 74.3613 132.482 74.3613C133.474 74.3613 133.762 75.1936 132.866 75.4496C131.906 75.7057 131.745 75.6737 131.521 75.3216Z" fill="white"/>
<path d="M134.242 74.5533C134.242 74.0732 134.819 73.561 135.075 73.8171C135.299 74.0412 134.851 75.0015 134.53 75.0015C134.37 75.0015 134.242 74.8094 134.242 74.5533Z" fill="white"/>
<path d="M116.54 74.1372C116.412 74.0412 116.316 73.625 116.348 73.2729C116.348 72.6647 116.38 72.6647 116.668 73.3689C116.989 74.1372 116.925 74.5213 116.54 74.1372Z" fill="white"/>
<path d="M117.149 73.657C116.86 72.5367 116.892 72.4406 117.725 72.4406C118.653 72.4406 119.229 73.625 118.525 74.0732C117.789 74.5213 117.373 74.3933 117.149 73.657Z" fill="white"/>
<path d="M128.16 74.2972C128.16 74.2012 128.32 73.689 128.512 73.1128C128.961 71.8324 129.953 71.7684 130.177 73.0168C130.273 73.497 130.305 73.9131 130.273 73.9451C130.113 74.1372 128.16 74.4253 128.16 74.2972Z" fill="white"/>
<path d="M119.421 73.497C119.293 73.4009 119.197 73.0168 119.197 72.6647C119.197 72.1525 119.293 72.1205 119.677 72.4406C119.934 72.6647 120.158 73.0488 120.158 73.2729C120.158 73.7531 119.773 73.8811 119.421 73.497Z" fill="white"/>
<path d="M130.945 72.8568C130.753 71.8644 131.169 71.4163 132.162 71.5443C132.642 71.6083 132.802 71.8964 132.802 72.6007C132.802 73.4009 132.674 73.593 131.97 73.657C131.265 73.7531 131.105 73.593 130.945 72.8568Z" fill="white"/>
<path d="M134.082 72.9848C133.666 71.7044 133.794 71.3202 134.658 71.2242C135.427 71.1282 135.523 71.2242 135.523 72.0565C135.523 72.7607 135.331 73.0488 134.851 73.1769C134.498 73.2729 134.146 73.1769 134.082 72.9848Z" fill="white"/>
<path d="M116.06 71.1602C116.06 70.552 116.124 70.2959 116.22 70.616C116.284 70.9041 116.284 71.4163 116.22 71.7364C116.124 72.0245 116.06 71.7684 116.06 71.1602Z" fill="white"/>
<path d="M116.86 71.5763C116.444 71.1922 116.636 69.9438 117.149 69.7517C117.885 69.4636 118.237 69.8157 118.237 70.8721C118.237 71.5443 118.077 71.8004 117.661 71.8004C117.341 71.8004 116.956 71.7044 116.86 71.5763Z" fill="white"/>
<path d="M118.781 70.712C118.653 70.2319 118.589 69.7197 118.717 69.6237C119.037 69.3036 119.229 69.8157 119.133 70.7441L119.037 71.6404L118.781 70.712Z" fill="white"/>
<path d="M129.121 70.488C129.121 70.1358 129.281 69.9438 129.441 70.0398C129.633 70.1358 129.761 70.456 129.761 70.712C129.761 70.9681 129.633 71.1602 129.441 71.1602C129.281 71.1602 129.121 70.8721 129.121 70.488Z" fill="white"/>
<path d="M130.561 70.9041C130.113 70.4239 130.465 69.5596 131.201 69.3676C132.13 69.1435 132.162 69.1435 132.45 70.0718C132.642 70.648 132.514 70.7761 131.681 70.9041C131.169 71.0001 130.657 70.9681 130.561 70.9041Z" fill="white"/>
<path d="M133.506 70.2959C133.154 69.9758 133.25 68.9194 133.602 68.9194C133.794 68.9194 133.922 68.7914 133.922 68.5993C133.922 68.4393 133.73 68.2792 133.474 68.2792C132.93 68.2792 132.482 66.7107 132.93 66.2625C133.506 65.6863 134.146 66.2945 134.53 67.8631C134.754 68.6954 134.979 69.6557 135.075 69.9758C135.203 70.3919 135.075 70.52 134.466 70.52C134.05 70.52 133.602 70.4239 133.506 70.2959Z" fill="white"/>
<path d="M135.235 68.5993C135.011 67.639 134.434 65.7184 134.018 64.3099C133.378 62.2612 133.314 61.749 133.666 61.5249C133.89 61.3649 134.178 61.2368 134.274 61.2368C134.626 61.2368 135.907 67.7991 135.779 69.0795L135.683 70.3599L135.235 68.5993Z" fill="white"/>
<path d="M115.74 68.4393C115.74 67.9271 115.804 67.735 115.9 68.0551C115.964 68.3432 115.964 68.7914 115.9 69.0155C115.804 69.2075 115.74 68.9835 115.74 68.4393Z" fill="white"/>
<path d="M116.38 68.3752C116.508 67.2549 117.437 66.9988 117.693 68.0231C117.917 68.8554 117.981 68.7594 117.021 69.0795C116.348 69.2715 116.284 69.2075 116.38 68.3752Z" fill="white"/>
<path d="M129.889 68.0871C129.633 67.1588 130.177 66.6146 131.201 66.7427C131.97 66.8387 132.258 68.2152 131.617 68.6313C130.817 69.1435 130.081 68.9194 129.889 68.0871Z" fill="white"/>
<path d="M118.237 67.8311C118.237 67.2869 118.397 66.9988 118.749 66.9988C119.069 66.9988 119.197 67.2229 119.133 67.703C118.973 68.7274 118.237 68.8234 118.237 67.8311Z" fill="white"/>
<path d="M115.388 66.4866C115.388 66.1345 115.484 66.0385 115.58 66.2945C115.676 66.5186 115.644 66.8067 115.548 66.9028C115.452 67.0308 115.356 66.8387 115.388 66.4866Z" fill="white"/>
<path d="M115.996 66.3906C115.996 65.9104 116.188 65.7184 116.668 65.7184C117.117 65.7184 117.277 65.8784 117.213 66.2625C117.053 67.0948 115.996 67.1909 115.996 66.3906Z" fill="white"/>
<path d="M117.757 66.1025C117.533 65.5263 117.533 65.5263 118.493 65.2702C119.069 65.0781 119.197 65.1742 119.197 65.6543C119.197 66.4226 118.045 66.8067 117.757 66.1025Z" fill="white"/>
<path d="M129.345 65.6543C129.121 64.8541 129.537 64.4379 130.657 64.4379C131.201 64.4379 131.361 64.63 131.361 65.2382C131.361 65.7184 131.169 66.0385 130.913 66.0385C130.657 66.0385 130.241 66.1345 129.985 66.2305C129.697 66.3266 129.473 66.1345 129.345 65.6543Z" fill="white"/>
<path d="M132.13 64.9181C131.874 64.2779 132.258 63.7977 132.994 63.7977C133.442 63.7977 133.602 64.0218 133.602 64.598C133.602 65.1742 133.442 65.3982 132.962 65.3982C132.61 65.3982 132.226 65.1742 132.13 64.9181Z" fill="white"/>
<path d="M115.676 64.4699C115.676 63.7977 116.412 63.0294 116.732 63.3816C116.86 63.4776 116.957 63.9257 116.957 64.3419C116.957 64.8541 116.764 65.0781 116.316 65.0781C115.9 65.0781 115.676 64.8541 115.676 64.4699Z" fill="white"/>
<path d="M117.437 64.0858C117.181 63.2855 117.469 62.9334 118.557 62.7733C119.549 62.6453 119.869 63.7017 119.005 64.3419C118.173 64.9501 117.661 64.8541 117.437 64.0858Z" fill="white"/>
<path d="M129.025 63.8937C128.8 63.7017 128.704 62.5173 128.897 62.5173C128.929 62.5173 129.409 62.3892 129.985 62.2292C130.945 61.9411 131.009 61.9731 130.977 62.8374C130.945 63.4776 130.753 63.7977 130.273 63.9257C129.409 64.1498 129.281 64.1498 129.025 63.8937Z" fill="white"/>
<path d="M127.84 63.1575C127.84 62.9334 127.936 62.8374 128.064 62.9334C128.16 63.0615 128.16 63.2535 128.064 63.3816C127.936 63.4776 127.84 63.3816 127.84 63.1575Z" fill="white"/>
<path d="M131.425 62.6453C131.521 62.1011 132.514 61.3009 132.738 61.5569C132.834 61.653 132.994 62.0371 133.09 62.4532C133.314 63.0935 133.218 63.1575 132.322 63.1575C131.553 63.1575 131.329 63.0294 131.425 62.6453Z" fill="white"/>
<path d="M115.996 62.6133C115.996 62.4532 116.156 62.1331 116.316 61.8771C116.572 61.4929 116.636 61.5249 116.636 62.1331C116.636 62.5173 116.508 62.8374 116.316 62.8374C116.156 62.8374 115.996 62.7413 115.996 62.6133Z" fill="white"/>
<path d="M116.956 61.9091C116.956 61.0128 117.629 60.7247 118.141 61.3969C118.461 61.8771 118.461 62.0371 118.141 62.2612C117.469 62.6773 116.956 62.5493 116.956 61.9091Z" fill="white"/>
<path d="M126.688 61.4929C126.112 60.8527 126.112 60.8207 126.656 61.0128C126.976 61.1408 127.392 61.2368 127.552 61.2368C127.712 61.2368 127.84 61.4609 127.84 61.717C127.84 62.3892 127.392 62.3252 126.688 61.4929Z" fill="white"/>
<path d="M119.805 61.4609C118.429 60.4046 118.237 58.0358 119.517 58.0358C120.382 58.0358 121.182 59.3802 121.054 60.6286C120.958 61.781 120.574 62.0371 119.805 61.4609Z" fill="white"/>
<path d="M128.576 61.653C128.704 61.5569 128.897 61.5569 129.025 61.653C129.121 61.781 129.025 61.877 128.8 61.877C128.576 61.877 128.48 61.781 128.576 61.653Z" fill="white"/>
<path d="M133.41 60.4046C133.506 60.1165 133.602 59.8284 133.602 59.7643C133.602 59.7003 133.762 59.6363 133.922 59.6363C134.114 59.6363 134.242 59.9244 134.242 60.2765C134.242 60.6606 134.018 60.9167 133.73 60.9167C133.378 60.9167 133.282 60.7567 133.41 60.4046Z" fill="white"/>
<path d="M116.636 60.3085C116.636 59.5723 117.309 58.3559 117.693 58.3559C118.365 58.3559 117.885 60.4046 117.181 60.5326C116.892 60.5966 116.636 60.5006 116.636 60.3085Z" fill="white"/>
<path d="M123.839 59.9564L122.879 59.7323L123.743 59.5082C124.639 59.2522 125.279 59.4442 125.279 59.9884C125.279 60.3085 125.247 60.3085 123.839 59.9564Z" fill="white"/>
<path d="M122.718 58.4199C122.718 57.1074 123.455 56.9154 124.127 58.0678C124.575 58.836 124.607 58.9961 124.191 58.9961C123.935 58.9961 123.519 59.0921 123.231 59.1881C122.846 59.3482 122.718 59.1561 122.718 58.4199Z" fill="white"/>
<path d="M128.288 58.868C126.848 58.2278 125.92 56.5312 125.92 54.5146C125.92 53.0741 126.048 52.722 126.912 51.9217C127.456 51.4095 128 50.9934 128.16 50.9934C128.865 50.9934 131.457 53.4582 132.322 54.9947L133.314 56.7553L132.258 57.8757C131.041 59.1561 129.697 59.5082 128.288 58.868Z" fill="white"/>
<path d="M121.598 58.0358C121.502 57.8757 121.566 57.7156 121.726 57.7156C121.918 57.7156 122.078 57.8757 122.078 58.0358C122.078 58.2278 122.014 58.3559 121.95 58.3559C121.854 58.3559 121.694 58.2278 121.598 58.0358Z" fill="white"/>
<path d="M117.405 57.5236C117.501 57.2355 117.597 56.9474 117.597 56.8834C117.597 56.8193 117.885 56.7553 118.237 56.7553C119.037 56.7553 119.069 57.2675 118.269 57.7156C117.405 58.1638 117.181 58.1318 117.405 57.5236Z" fill="white"/>
<path d="M119.934 57.1394C119.197 57.0434 118.973 56.6273 119.453 56.3392C119.581 56.2431 120.158 56.0831 120.734 55.955C121.598 55.763 121.758 55.827 121.758 56.3712C121.758 57.0434 121.086 57.3315 119.934 57.1394Z" fill="white"/>
<path d="M122.398 56.0511C122.398 55.667 122.43 55.4429 122.494 55.5069C122.526 55.5709 122.782 55.891 123.007 56.2111C123.391 56.6593 123.359 56.7553 122.91 56.7553C122.59 56.7553 122.398 56.4992 122.398 56.0511Z" fill="white"/>
<path d="M117.917 55.827C117.917 55.6349 118.077 55.4109 118.237 55.3148C118.429 55.2188 118.557 55.3468 118.557 55.6029C118.557 55.891 118.429 56.1151 118.237 56.1151C118.077 56.1151 117.917 55.9871 117.917 55.827Z" fill="white"/>
<path d="M119.101 55.3468C118.845 54.7066 121.118 54.0024 121.502 54.6106C121.79 55.1228 121.502 55.3468 120.286 55.6029C119.549 55.763 119.229 55.699 119.101 55.3468Z" fill="white"/>
<path d="M122.11 54.3225C122.11 53.9704 122.206 53.8743 122.302 54.1304C122.398 54.3545 122.366 54.6426 122.27 54.7386C122.174 54.8667 122.078 54.6746 122.11 54.3225Z" fill="white"/>
<path d="M119.389 53.8103C119.773 53.1061 120.894 51.9537 121.182 51.9537C121.502 51.9537 121.534 53.4582 121.214 53.6503C121.054 53.7143 120.542 53.8743 120.062 54.0024C119.357 54.1624 119.197 54.1304 119.389 53.8103Z" fill="white"/>
<path d="M121.95 53.0741C121.598 52.1138 121.758 51.6976 122.526 51.5696C123.327 51.4095 123.327 51.4095 122.814 52.4019C122.174 53.6823 122.206 53.6823 121.95 53.0741Z" fill="white"/>
<path d="M121.758 51.1534C121.758 51.0894 122.398 50.6413 123.199 50.1931C124.159 49.6169 124.831 49.4248 125.311 49.5529C125.888 49.745 125.727 49.873 124.319 50.5452C122.75 51.2495 121.758 51.5056 121.758 51.1534Z" fill="white"/>
<path d="M139.524 22.7919C138.66 21.5434 136.835 19.5268 135.523 18.3103C134.21 17.0939 133.346 16.1016 133.602 16.1016C134.306 16.1016 139.684 17.5741 141.029 18.1503C142.149 18.6305 142.181 18.6945 141.893 19.6868C141.733 20.263 141.605 21.7035 141.605 22.8879C141.605 24.1043 141.509 25.0646 141.381 25.0646C141.221 25.0646 140.42 24.0403 139.524 22.7919Z" fill="white"/>
<path d="M74.3821 119.753C73.0697 119.08 72.7816 118.696 71.117 115.399C68.7162 110.726 68.6522 109.637 70.925 112.294C71.8213 113.35 73.902 115.527 75.5345 117.128C78.3195 119.817 78.4475 120.009 77.5192 119.881C76.847 119.785 76.5909 119.849 76.7509 120.105C77.1351 120.681 75.9187 120.521 74.3821 119.753Z" fill="white"/>
<path fill-rule="evenodd" clip-rule="evenodd" d="M128.029 178.074C127.763 177.443 128.059 176.716 128.69 176.45L129.38 176.157C136.085 173.288 139.934 171.565 142.549 168.828C145.164 166.092 145.477 162.072 145.968 159.626C146.103 158.955 147.623 160.134 148.294 160.268C148.966 160.403 149.4 161.057 149.266 161.728C148.675 164.669 147.084 167.472 144.523 170.134C141.971 172.786 137.029 175.629 129.652 178.735C129.021 179.001 128.294 178.705 128.029 178.074Z" fill="#00160A"/>
<path fill-rule="evenodd" clip-rule="evenodd" d="M158.351 50.3503C158.939 50.0001 159.7 50.1932 160.05 50.7815C163.557 56.672 165.435 63.4056 165.435 70.4113C165.435 91.6354 148.23 108.841 127.006 108.841C121.366 108.841 115.896 107.625 110.887 105.307C110.265 105.02 107.918 102.73 110.282 103.661C112.646 104.592 121.793 106.682 127.071 106.682C146.926 106.682 160.973 90.2661 160.973 70.4113C160.973 63.8551 158.351 58.0358 157.92 52.0497C157.87 51.3558 157.763 50.7005 158.351 50.3503Z" fill="#00160A"/>
<path fill-rule="evenodd" clip-rule="evenodd" d="M35.5769 144.174C36.0151 143.648 36.7968 142.585 37.3228 143.023C39.4809 144.821 41.7839 146.904 44.2473 147.306C46.8108 147.724 49.8519 147.724 53.3667 147.298C54.0464 147.216 54.6641 147.7 54.7464 148.38C54.8287 149.06 54.3444 149.678 53.6647 149.76C49.9321 150.212 46.6612 150.212 43.848 149.753C40.9348 149.277 38.2256 147.994 35.736 145.92C35.21 145.482 35.1387 144.7 35.5769 144.174Z" fill="#00160A"/>
<path d="M61.8979 100.802C60.2974 99.5218 56.8722 95.7445 54.2793 92.4154C52.9349 90.6548 51.4304 87.0696 50.5341 83.4523C50.1179 81.8198 49.7018 80.3473 49.6058 80.1552C49.4777 79.9952 48.9655 77.7224 48.4534 75.0975C47.6851 71.3843 47.8476 70.188 47.1729 65.7464C46.8873 63.8659 46.6288 62.3695 46.6288 62.3695L47.461 61.3009C47.9412 60.6606 48.5486 59.6012 48.7735 58.9961C49.7978 56.2398 57.3204 47.6002 57.5444 47.8243C57.6085 47.8883 57.3524 49.3928 56.9042 51.1534C56.4881 52.914 55.9759 55.5709 55.7518 57.0754C55.4317 59.5723 55.3037 59.8604 54.3113 60.6927C53.0629 61.749 50.6941 65.1422 50.6941 65.8464C50.6941 66.8067 52.1346 66.1665 53.6391 64.598L55.1756 62.9974V64.758C55.1756 65.9104 54.9516 66.9668 54.5354 67.7991C53.7352 69.3676 53.7352 71.0321 54.5034 72.3126C54.8875 72.9528 55.2397 74.4893 55.4637 76.3139C56.4561 84.5727 58.5688 91.7431 62.186 98.9456C63.0823 100.738 63.7865 102.211 63.7545 102.211C63.6905 102.211 62.8582 101.57 61.8979 100.802Z" fill="white"/>
<path fill-rule="evenodd" clip-rule="evenodd" d="M195.095 120.553L197.4 121.577C197.878 121.798 203.15 124.331 209.483 127.374C219.693 132.28 232.661 138.511 232.74 138.511C232.868 138.511 233.468 137.122 233.604 135.502C233.924 132.013 235.108 127.275 236.485 123.978C237.125 122.506 237.637 120.665 237.637 120.505C237.637 120.432 237.117 120.222 236.265 119.879C235.251 119.469 233.767 118.871 232.131 118.088C224.065 114.215 208.283 106.308 206.331 105.124C204.41 104.003 204.026 103.907 204.026 104.643C204.026 105.604 202.073 110.053 200.569 112.454C199.768 113.767 198.2 116.135 197.08 117.704L195.095 120.553ZM232.195 132.749C233.113 133.281 231.523 134.061 231.139 134.189C228.877 134.382 226.214 133.956 224.033 132.685C222.892 131.876 213.91 126.886 207.951 123.576C205.227 122.062 203.135 120.9 202.713 120.649C201.369 119.849 200.089 118.984 199.864 118.728C199.192 117.864 199.832 117.48 201.721 117.64C202.857 117.736 230.213 131.6 232.195 132.749Z" fill="white"/>
<path d="M172.111 123.434C171.279 123.146 170.383 122.506 169.806 121.769L168.846 120.585L172.239 117.224C177.457 112.102 181.298 106.505 184.755 100.262C185.908 98.1818 189.333 89.7905 189.749 88.8622C190.389 87.5177 190.869 87.0055 192.246 86.2373C193.878 85.277 195.735 84.9568 196.535 85.501C198.072 86.5254 198.072 89.7585 196.535 95.3283C194.839 101.442 192.566 105.828 187.86 112.134C187.124 113.094 185.748 114.983 184.755 116.295C182.098 119.817 180.37 121.513 178.033 122.826C175.728 124.106 174.384 124.266 172.111 123.434Z" fill="white"/>
<path d="M184.179 122.698L183.507 122.025C183.507 122.025 194.664 107.85 196.663 102.627C198.189 98.6408 199.087 97.5105 200.298 97.5105C200.976 97.5105 201.529 97.6651 201.785 98.0493C202.233 98.7215 202.665 99.5538 202.089 102.403C201.129 107.012 199.656 110.053 195.239 116.616C194.214 118.12 192.902 119.785 192.326 120.361C190.981 121.609 187.956 122.89 186.196 123.178C185.076 123.338 184.755 123.274 184.179 122.698Z" fill="white"/>
<path fill-rule="evenodd" clip-rule="evenodd" d="M202.92 107.875C203.566 106.398 204.026 105.11 204.026 104.643C204.026 103.907 204.41 104.003 206.331 105.124C208.283 106.308 224.065 114.215 232.131 118.088C235.14 119.529 237.637 120.345 237.637 120.505C237.637 120.665 202.236 109.441 202.92 107.875Z" fill="#E7EAEE"/>
<path fill-rule="evenodd" clip-rule="evenodd" d="M93.3966 109.701C89.3312 107.044 83.1851 100.802 80.2081 96.3527C75.9507 89.9505 73.1337 83.1002 71.7572 75.7377C70.7649 70.3919 70.7969 62.1651 71.7893 57.3955C72.8136 52.5299 74.126 48.8166 76.4628 44.1111C79.1838 38.6692 82.0647 34.6679 86.3862 30.3464C90.624 26.1086 71.7893 43.6336 76.4628 74.9895C80.2081 101.266 96.3039 111.617 93.3966 109.701Z" fill="#E7EAEE"/>
</svg>
