<svg width="116" height="218" viewBox="0 0 116 218" fill="none" xmlns="http://www.w3.org/2000/svg">
<g clip-path="url(#clip0)">
<path d="M68.7752 66.163H49.8027C25.6194 66.163 6.01489 85.7675 6.01489 109.951L6.01489 170.168C6.01489 194.351 25.6194 213.956 49.8027 213.956H68.7752C92.9585 213.956 112.563 194.351 112.563 170.168V109.951C112.563 85.7675 92.9585 66.163 68.7752 66.163Z" stroke="white" stroke-width="6.87407" stroke-miterlimit="10"/>
<path d="M21.2922 95.9449L34.1811 83.056L47.07 95.9449" stroke="white" stroke-width="6.87407" stroke-linecap="round" stroke-linejoin="round"/>
<path d="M71.1465 95.9449L84.0354 83.056L96.9243 95.9449" stroke="white" stroke-width="6.87407" stroke-linecap="round" stroke-linejoin="round"/>
<path d="M45.3516 116.567L58.2576 103.678L71.1465 116.567" stroke="white" stroke-width="6.87407" stroke-linecap="round" stroke-linejoin="round"/>
<path d="M21.2922 137.189L34.1811 124.3L47.07 137.189" stroke="white" stroke-width="6.87407" stroke-linecap="round" stroke-linejoin="round"/>
<path d="M45.3516 159.53L58.2576 146.641L71.1465 159.53" stroke="white" stroke-width="6.87407" stroke-linecap="round" stroke-linejoin="round"/>
<path d="M21.2922 180.152L34.1811 167.263L47.07 180.152" stroke="white" stroke-width="6.87407" stroke-linecap="round" stroke-linejoin="round"/>
<path d="M45.3516 200.775L58.2576 187.886L71.1465 200.775" stroke="white" stroke-width="6.87407" stroke-linecap="round" stroke-linejoin="round"/>
<path d="M71.1465 137.189L84.0354 124.3L96.9243 137.189" stroke="white" stroke-width="6.87407" stroke-linecap="round" stroke-linejoin="round"/>
<path d="M71.1465 180.152L84.0354 167.263L96.9243 180.152" stroke="white" stroke-width="6.87407" stroke-linecap="round" stroke-linejoin="round"/>
<path d="M21.3095 116.567L8.42065 103.678" stroke="white" stroke-width="8.59259" stroke-linecap="round" stroke-linejoin="round"/>
<path d="M21.3095 157.812L8.42065 144.923" stroke="white" stroke-width="8.59259" stroke-linecap="round" stroke-linejoin="round"/>
<path d="M97.7834 116.567L110.672 103.678" stroke="white" stroke-width="8.59259" stroke-linecap="round" stroke-linejoin="round"/>
<path d="M97.7834 157.812L110.672 144.923" stroke="white" stroke-width="8.59259" stroke-linecap="round" stroke-linejoin="round"/>
<path d="M22.3408 73.8963L4.29639 57.5704H26.6371L18.0445 28.3555L45.5408 48.9778L35.2297 4.29628L59.289 30.0741L81.6297 6.0148L71.3186 48.9778L98.8149 30.0741L91.9408 57.5704H110.845L96.2371 73.8963" stroke="white" stroke-width="8.59259" stroke-linecap="round" stroke-linejoin="round"/>
</g>
<defs>
<clipPath id="clip0">
<rect width="116" height="217.393" fill="white"/>
</clipPath>
</defs>
</svg>
