<svg width="319" height="350" viewBox="0 0 319 350" fill="none" xmlns="http://www.w3.org/2000/svg">
<path fill-rule="evenodd" clip-rule="evenodd" d="M274.72 170.512C275.542 271.764 231.252 345.73 146.578 349.929C84.8637 352.99 121.782 256.161 44.4351 191.87C-5.07453 150.718 -37.7521 43.7952 84.2699 16.1491C206.292 -11.4969 273.898 69.2597 274.72 170.512Z" fill="#FF7F50"/>
<path d="M24.8521 317.536C17.1707 303.375 18.4252 286.241 20.011 270.209C23.6585 233.334 29.2747 193.625 55.1039 167.055C61.9355 160.027 70.2741 154.069 79.8438 151.954C87.2593 150.314 94.4033 147.453 100.901 143.521C102.467 134.35 93.8372 127.128 87.8079 120.041C81.0561 112.105 76.8441 102.04 75.9308 91.6608C75.3901 85.5168 74.1001 77.1457 67.938 76.8838C62.8727 76.6684 59.0594 70.5564 61.0927 65.9122C63.1261 61.268 70.2037 59.9244 73.7976 63.5002C68.6711 44.2806 79.5011 22.1055 97.8109 14.3318C94.8254 10.0622 101.342 4.94544 106.516 5.55693C111.689 6.16842 116.697 9.29357 121.778 8.13897C120.036 5.07338 122.826 1.00037 126.263 0.215105C129.7 -0.570164 133.227 0.921894 136.31 2.63224C156.099 13.6112 169.176 35.7522 169.239 58.3829C169.75 54.2521 175.949 52.8376 178.981 55.6894C182.013 58.5412 181.869 63.6455 179.716 67.2079C177.563 70.7702 173.894 73.109 170.262 75.1422C170.353 90.1497 164.646 105.119 154.586 116.256C147.266 124.36 136.895 132.956 139.297 143.609C143.191 142.748 147.131 147.24 145.768 150.988C162.464 149.598 178.045 159.675 189.873 171.539C207.213 188.932 219.676 211.138 225.491 234.999C226.507 239.167 232.436 240.304 236.105 238.08C239.774 235.856 241.659 231.65 243.331 227.7L276.358 149.653C274.229 139.138 275.951 128.271 277.676 117.683L283.402 82.5432C283.921 79.3535 286.152 75.1444 289.098 76.4742C290.116 76.9337 290.684 77.927 291.043 79.0216C291.209 79.529 291.331 80.0581 291.431 80.5659C293.217 89.5764 293.788 98.8267 293.123 107.988L304.556 88.4311C306.406 85.2663 310.24 81.7652 313.101 83.0745C314.177 83.2856 314.906 84.3589 315.06 85.4534C315.468 86.9414 315.122 88.7305 314.657 90.2741C312.571 97.1873 309.172 103.702 304.693 109.366C310.731 111.425 317.725 114.553 318.782 120.844C318.155 132.249 309.747 145.343 303.55 152.141C304.972 151.283 305.902 153.836 305.619 155.473C298.821 194.806 282.254 232.414 257.821 263.978C250.611 273.294 242.237 280.503 229.101 281.802C211.2 283.574 199.462 257.168 189.741 257.875C189.741 257.875 180.645 304.839 174.059 311.111C167.473 317.384 124.193 330.556 111.152 326.165C98.1095 321.774 85.0642 333.516 67.938 332.339C50.1884 331.119 24.8521 317.536 24.8521 317.536Z" fill="white"/>
<path d="M296.852 160.642C296.696 160.435 296.591 160.191 296.545 159.935C296.375 158.973 297.237 157.966 298.214 157.986C299.191 158.006 300.012 159.047 299.802 160.001C299.593 160.956 298.412 161.559 297.516 161.168C297.254 161.053 297.023 160.87 296.852 160.642Z" fill="#333333"/>
<path d="M137.319 60.214C136.654 60.0641 136.331 59.2312 136.514 58.5754C136.698 57.9195 137.238 57.428 137.794 57.0357C141.586 54.3633 147.354 55.0549 150.406 58.5479C150.649 58.8262 150.888 59.1527 150.876 59.5221C150.864 59.8914 150.46 60.2494 150.132 60.0785C148.414 59.1823 146.662 58.2746 144.755 57.9286C142.849 57.5827 140.727 57.8786 139.276 59.1628C138.697 59.6752 138.073 60.3842 137.319 60.214Z" fill="#333333"/>
<path d="M104.772 60.0845C104.564 60.725 103.729 60.9593 103.081 60.778C102.432 60.5968 101.911 60.129 101.361 59.74C99.5538 58.4612 97.2619 57.9728 95.0524 58.1162C92.843 58.2596 90.7061 58.9994 88.7271 59.9921C88.2736 60.2195 87.7338 59.6915 87.7617 59.1849C87.7896 58.6783 88.1704 58.2669 88.5549 57.9359C90.6136 56.163 93.4115 55.3533 96.1248 55.4931C98.838 55.6329 101.461 56.6747 103.695 58.2198C104.33 58.6588 105.01 59.3504 104.772 60.0845Z" fill="black"/>
<path d="M297.784 167.794C297.554 168.101 297.225 168.317 296.891 168.506C296.544 168.703 296.162 168.882 295.764 168.852C295.236 168.811 294.795 168.396 294.578 167.913C294.042 166.723 294.952 165.097 296.256 165.051C297.559 165.005 298.566 166.749 297.784 167.794Z" fill="#333333"/>
<path d="M181.762 217.386C182.395 217.676 181.944 218.699 181.298 218.96C180.653 219.222 179.839 219.23 179.418 219.785C179.118 220.18 179.131 220.722 179.161 221.217C179.221 222.228 179.285 223.301 178.804 224.193C178.322 225.084 177.066 225.633 176.262 225.016C175.524 224.45 175.59 223.35 175.564 222.42C175.539 221.491 175.071 220.327 174.142 220.369C169.593 220.577 165.045 220.785 160.496 220.993C159.919 221.019 159.263 221.015 158.87 220.592C158.332 220.013 158.697 218.991 159.377 218.587C160.057 218.182 160.9 218.216 161.689 218.261C165.032 218.454 168.374 218.648 171.717 218.841C172.236 218.871 172.78 218.896 173.25 218.673C173.72 218.45 174.073 217.89 173.883 217.406C173.372 216.109 174.05 214.468 175.327 213.91C175.771 213.716 175.972 213.204 176.082 212.733C176.192 212.262 176.271 211.749 176.606 211.401C176.942 211.052 177.647 211.03 177.823 211.48C178.23 212.52 179.225 213.192 179.924 214.062C180.623 214.932 180.947 216.378 180.062 217.058C180.111 217.696 181.181 217.119 181.762 217.386Z" fill="#333333"/>
<path d="M92.8001 99.9788C92.1654 99.9401 91.9019 98.923 92.4381 98.5811C93.1122 98.5332 93.4087 99.6876 92.795 99.9706L92.8001 99.9788Z" fill="#FF7F50"/>
<path d="M143.539 84.0552C143.357 83.7266 143.547 83.2527 143.906 83.1417C144.265 83.0307 144.69 83.3143 144.725 83.6883C144.626 84.1748 143.916 84.3957 143.558 84.0514L143.539 84.0552Z" fill="#FF7F50"/>
<path d="M141.41 77.7871C141.142 78.3176 140.173 78.1696 140.075 77.5833C140.271 77.3162 140.553 77.1128 140.868 77.0104C141.135 77.2069 141.341 77.4859 141.449 77.7994L141.41 77.7871Z" fill="#FF7F50"/>
<path d="M128.426 101.431C128.824 101.405 129.226 101.643 129.393 102.005C129.258 102.414 128.751 102.698 128.37 102.497C127.989 102.296 128.025 101.593 128.448 101.511L128.426 101.431Z" fill="#FF7F50"/>
<path d="M140.34 102.024C140.536 101.535 141.446 101.721 141.435 102.248C141.16 102.52 140.803 102.709 140.423 102.784C140.118 102.679 140.041 102.197 140.3 102.003L140.34 102.024Z" fill="#FF7F50"/>
<path d="M119.832 79.9493C119.43 79.9511 119.135 80.4674 119.338 80.8143C119.54 81.1611 120.135 81.1585 120.334 80.8099C120.533 80.4612 120.233 79.9476 119.832 79.9493Z" fill="#FF7F50"/>
<path d="M95.618 86.0683C95.2944 85.826 94.744 86.0617 94.6959 86.4631C94.6479 86.8645 95.1272 87.2234 95.4989 87.0643C95.8705 86.9051 95.9417 86.3106 95.618 86.0683Z" fill="#FF7F50"/>
<path d="M149.732 87.0326C149.346 87.1596 148.907 86.7267 149.023 86.3366C149.139 85.9464 149.734 85.8194 150.004 86.1239C150.274 86.4284 150.085 86.9978 149.688 87.0867L149.732 87.0326Z" fill="#FF7F50"/>
<path d="M117.525 98.9755C117.376 98.5996 116.783 98.5131 116.532 98.8305C116.281 99.148 116.503 99.7047 116.903 99.7631C117.303 99.8216 117.675 99.3514 117.525 98.9755Z" fill="#FF7F50"/>
<path d="M116.893 108.909C116.612 108.991 116.394 108.649 116.346 108.359C116.624 107.834 117.585 107.98 117.693 108.565C117.523 108.821 117.195 108.963 116.892 108.911L116.893 108.909Z" fill="#FF7F50"/>
<path d="M120.732 108.438C120.296 108.546 119.682 108.333 119.726 107.886C119.986 107.618 120.392 107.424 120.731 107.582C121.07 107.74 121.088 108.363 120.72 108.425L120.732 108.438Z" fill="#FF7F50"/>
<path d="M140.423 108.233C140.242 108.101 140.119 107.894 140.088 107.672C140.277 107.402 140.557 107.197 140.872 107.1C141.058 107.288 141.244 107.476 141.431 107.664C141.225 108.017 140.83 108.251 140.421 108.26L140.423 108.233Z" fill="#FF7F50"/>
<path d="M123.22 81.0766C122.901 81.5091 122.072 81.2982 121.999 80.766C122.27 80.1902 123.348 80.447 123.331 81.0831L123.22 81.0766Z" fill="#FF7F50"/>
<path d="M132.054 102.343C131.694 102.69 130.964 102.328 131.023 101.831C131.082 101.334 131.876 101.152 132.145 101.574C131.947 101.72 131.866 102.006 131.959 102.234L132.054 102.343Z" fill="#FF7F50"/>
<path d="M110.068 80.1132C110.454 79.9861 110.893 80.4191 110.777 80.8092C110.661 81.1993 110.066 81.3264 109.796 81.0219C109.526 80.7173 109.715 80.148 110.112 80.0591L110.068 80.1132Z" fill="#FF7F50"/>
<path d="M119.508 92.7509C119.887 92.434 120.578 92.7096 120.635 93.2006C120.375 93.4368 120.02 93.6311 119.684 93.5299C119.348 93.4287 119.188 92.8957 119.494 92.7228L119.508 92.7509Z" fill="#FF7F50"/>
<path d="M128.121 95.9215C128.381 95.3924 129.345 95.5316 129.445 96.1126C129.156 96.6411 128.191 96.4994 128.067 95.9101L128.121 95.9215Z" fill="#FF7F50"/>
<path d="M128.652 98.9565C128.919 98.5641 129.678 98.8185 129.653 99.2922C129.481 99.5661 129.203 99.7717 128.89 99.857C128.578 99.6899 128.451 99.2498 128.626 98.9422L128.652 98.9565Z" fill="#FF7F50"/>
<path d="M141.214 80.5175C140.966 80.1938 140.367 80.2724 140.211 80.6491C140.055 81.0258 140.422 81.5052 140.826 81.4521C141.231 81.3991 141.462 80.8412 141.214 80.5175Z" fill="#FF7F50"/>
<path d="M134.776 110.514C134.853 110.162 135.473 110.332 135.512 110.691C135.55 111.05 135.26 111.351 134.993 111.594C134.79 111.464 134.576 111.32 134.49 111.095C134.405 110.871 134.533 110.554 134.773 110.548L134.776 110.514Z" fill="#FF7F50"/>
<path d="M104.855 77.4817C104.706 77.1058 104.113 77.0193 103.862 77.3367C103.611 77.6542 103.833 78.2109 104.233 78.2693C104.633 78.3278 105.005 77.8576 104.855 77.4817Z" fill="#FF7F50"/>
<path d="M120.256 110.515C120.051 110.19 119.482 110.211 119.302 110.551C119.123 110.892 119.426 111.374 119.81 111.359C120.195 111.344 120.46 110.84 120.256 110.515Z" fill="#FF7F50"/>
<path d="M95.0464 98.4017C95.2626 98.1572 95.705 98.4544 95.6954 98.7806C95.6858 99.1069 95.4228 99.3619 95.1787 99.5785C94.6533 99.4948 94.564 98.5947 95.0628 98.4094L95.0464 98.4017Z" fill="#FF7F50"/>
<path d="M123.23 105.298C123.008 105.436 122.785 105.574 122.563 105.711C122.156 105.562 122.108 104.886 122.49 104.681C122.872 104.475 123.409 104.888 123.309 105.31L123.23 105.298Z" fill="#FF7F50"/>
<path d="M149.172 98.7213C149.048 98.3364 149.8 98.2121 149.948 98.5886C150.096 98.965 149.797 99.3716 149.463 99.6003C149.134 99.454 148.92 99.0822 148.96 98.724L149.172 98.7213Z" fill="#FF7F50"/>
<path d="M140.084 99.0727C140.328 98.7206 140.863 98.6119 141.225 98.8406C141.32 99.3678 140.652 99.8523 140.18 99.5988C140.134 99.4257 140.087 99.2525 140.041 99.0794L140.084 99.0727Z" fill="#FF7F50"/>
<path d="M104.185 95.4983C104.572 95.3712 105.011 95.8042 104.894 96.1943C104.778 96.5844 104.184 96.7115 103.914 96.407C103.644 96.1024 103.832 95.5331 104.23 95.4442L104.185 95.4983Z" fill="#FF7F50"/>
<path d="M146.171 74.8629C146.176 74.5236 146.53 74.2341 146.863 74.2967C147.197 74.3594 147.421 74.7575 147.302 75.0753C146.951 75.341 146.388 75.2586 146.128 74.9035L146.171 74.8629Z" fill="#FF7F50"/>
<path d="M137.591 92.7346C137.917 92.4727 138.499 92.7692 138.479 93.1868C138.193 93.6324 137.428 93.6327 137.141 93.1874C137.292 93.037 137.442 92.8865 137.593 92.7361L137.591 92.7346Z" fill="#FF7F50"/>
<path d="M100.588 101.665C100.917 101.317 101.571 101.376 101.832 101.778C101.634 102.052 101.374 102.332 101.037 102.348C100.699 102.364 100.381 101.925 100.614 101.681L100.588 101.665Z" fill="#FF7F50"/>
<path d="M149.81 105.178C149.676 105.357 149.469 105.481 149.248 105.515C148.846 105.285 148.846 104.568 149.279 104.402C149.712 104.236 150.179 104.907 149.832 105.215L149.81 105.178Z" fill="#FF7F50"/>
<path d="M95.4443 105.361C95.7605 105.141 95.7127 104.573 95.3642 104.409C95.0157 104.245 94.5474 104.571 94.5797 104.955C94.612 105.338 95.1281 105.581 95.4443 105.361Z" fill="#FF7F50"/>
<path d="M149.633 93.6744C149.317 93.9973 148.783 93.3265 149.089 92.994C149.395 92.6615 149.988 92.8315 150.261 93.1914C150.073 93.379 149.885 93.5666 149.697 93.7543L149.633 93.6744Z" fill="#FF7F50"/>
<path d="M91.9296 78.2494C91.843 77.7011 92.7312 77.3427 93.0494 77.7977C92.785 78.1451 92.5205 78.4926 92.2561 78.8401C92.0635 78.7059 91.9297 78.4903 91.8949 78.2582L91.9296 78.2494Z" fill="#FF7F50"/>
<path d="M95.3326 93.6744C95.0165 93.9973 94.4831 93.3265 94.7891 92.994C95.095 92.6615 95.6873 92.8315 95.9605 93.1914C95.7726 93.379 95.5847 93.5666 95.3968 93.7543L95.3326 93.6744Z" fill="#FF7F50"/>
<path d="M143.524 77.9929C143.254 77.7354 143.306 77.2244 143.623 77.0274C143.94 76.8303 144.421 77.0091 144.533 77.3651C144.376 77.7244 143.976 77.9617 143.585 77.928L143.524 77.9929Z" fill="#FF7F50"/>
<path d="M103.671 80.7594C103.921 80.3132 104.669 80.2871 104.948 80.7149C104.86 81.3407 103.741 81.3745 103.615 80.7552L103.671 80.7594Z" fill="#FF7F50"/>
<path d="M126.457 83.3429C126.464 83.6618 126.353 83.9819 126.151 84.2285C125.8 84.4261 125.33 83.9838 125.451 83.5996C125.573 83.2153 126.117 83.0779 126.451 83.3032L126.457 83.3429Z" fill="#FF7F50"/>
<path d="M117.23 104.876C117.117 104.513 116.568 104.39 116.31 104.669C116.053 104.949 116.221 105.486 116.591 105.569C116.962 105.652 117.343 105.239 117.23 104.876Z" fill="#FF7F50"/>
<path d="M129.058 107.866C129.222 108.295 128.898 108.835 128.442 108.893C128.141 108.765 128.001 108.356 128.159 108.071C128.318 107.785 128.74 107.688 129.007 107.877L129.058 107.866Z" fill="#FF7F50"/>
<path d="M109.739 111.061C109.739 110.649 109.983 110.247 110.347 110.055C110.611 110.319 110.8 110.726 110.639 111.063C110.478 111.4 109.854 111.41 109.799 111.04L109.739 111.061Z" fill="#FF7F50"/>
<path d="M143.652 107.636C143.968 107.313 144.502 107.983 144.196 108.316C143.89 108.648 143.298 108.478 143.024 108.119C143.212 107.931 143.4 107.743 143.588 107.556L143.652 107.636Z" fill="#FF7F50"/>
<path d="M116.729 80.4852C117.045 80.1624 117.578 80.8332 117.272 81.1657C116.966 81.4982 116.374 81.3281 116.101 80.9683C116.289 80.7806 116.476 80.593 116.664 80.4054L116.729 80.4852Z" fill="#FF7F50"/>
<path d="M98.1199 99.4108C97.8892 99.1607 98.2039 98.7202 98.544 98.7312C98.8841 98.7422 99.1508 99.023 99.3397 99.306C99.0712 99.6981 98.4314 99.7573 98.0954 99.4212L98.1199 99.4108Z" fill="#FF7F50"/>
<path d="M104.666 88.9803C104.988 88.9548 105.118 89.4596 104.897 89.6951C104.676 89.9306 104.308 89.9417 103.988 89.9045C103.695 89.5059 104.205 88.8484 104.664 89.0324L104.666 88.9803Z" fill="#FF7F50"/>
<path d="M120.509 117.281C120.173 117.71 119.343 117.489 119.264 116.951C119.551 116.442 120.512 116.699 120.506 117.283L120.509 117.281Z" fill="#FF7F50"/>
<path d="M103.846 99.5824C103.667 99.2317 103.903 98.7317 104.293 98.6733C104.682 98.615 105.059 99.0614 104.913 99.4274C104.768 99.7934 104.153 99.8361 103.977 99.4833L103.846 99.5824Z" fill="#FF7F50"/>
<path d="M116.666 111.397C116.384 111.488 116.181 111.128 116.105 110.84C116.395 110.395 117.157 110.391 117.451 110.833C117.259 111.101 116.98 111.306 116.668 111.412L116.666 111.397Z" fill="#FF7F50"/>
<path d="M119.222 86.8507C119.331 86.2685 120.273 86.1028 120.574 86.6129C120.433 87.1578 119.579 87.3232 119.244 86.8705L119.222 86.8507Z" fill="#FF7F50"/>
<path d="M149.81 96.052C149.697 95.6893 149.148 95.566 148.89 95.8454C148.633 96.1248 148.801 96.662 149.171 96.7453C149.542 96.8285 149.924 96.4147 149.81 96.052Z" fill="#FF7F50"/>
<path d="M123.566 99.5252C123.24 99.7871 122.658 99.4906 122.678 99.0729C122.965 98.6273 123.729 98.627 124.016 99.0724C123.866 99.2228 123.715 99.3732 123.565 99.5237L123.566 99.5252Z" fill="#FF7F50"/>
<path d="M117.115 116.384C117.398 116.294 117.601 116.654 117.676 116.941C117.387 117.386 116.625 117.39 116.33 116.949C116.523 116.68 116.801 116.475 117.114 116.37L117.115 116.384Z" fill="#FF7F50"/>
<path d="M153.204 74.4097C153.352 74.5579 153.5 74.7062 153.648 74.8544C153.386 75.2561 152.706 75.396 152.442 74.9957C152.177 74.5954 152.921 74.0271 153.14 74.4546L153.204 74.4097Z" fill="#FF7F50"/>
<path d="M140.438 84.2322C140.729 84.4881 141.274 84.3037 141.349 83.9233C141.425 83.5428 140.994 83.1638 140.626 83.2883C140.259 83.4128 140.146 83.9763 140.438 84.2322Z" fill="#FF7F50"/>
<path d="M122.336 108.247C122.453 107.976 122.88 107.914 123.069 108.141C123.282 108.483 123.089 109.035 122.689 109.081C122.288 109.127 122.014 108.478 122.365 108.281L122.336 108.247Z" fill="#FF7F50"/>
<path d="M104.219 101.677C104.502 101.587 104.705 101.948 104.78 102.235C104.59 102.505 104.311 102.71 103.996 102.809C103.818 102.67 103.694 102.462 103.656 102.239C103.844 102.05 104.032 101.862 104.221 101.673L104.219 101.677Z" fill="#FF7F50"/>
<path d="M144.575 93.2864C144.653 93.8138 143.882 94.2189 143.492 93.8547C143.326 93.3267 144.198 92.8374 144.493 93.3057L144.575 93.2864Z" fill="#FF7F50"/>
<path d="M113.944 92.8584C114.202 93.0165 114.346 93.3434 114.287 93.6408C113.965 93.7657 113.611 93.8055 113.269 93.7552C113.164 93.5891 113.123 93.3826 113.159 93.189C113.422 93.0757 113.686 92.9625 113.949 92.8493L113.944 92.8584Z" fill="#FF7F50"/>
<path d="M128.897 104.832C129.015 105.074 129.043 105.357 128.974 105.617C128.667 105.884 128.091 105.637 128.073 105.23C128.055 104.823 128.608 104.526 128.937 104.765L128.897 104.832Z" fill="#FF7F50"/>
<path d="M147.531 99.5012C147.173 99.8269 146.483 99.5676 146.429 99.0866C146.548 98.8085 146.904 98.6592 147.186 98.7691C147.468 98.879 147.629 99.2297 147.528 99.5152L147.531 99.5012Z" fill="#FF7F50"/>
<path d="M117.226 77.7995C117.433 77.9385 117.526 78.2263 117.438 78.4597C117.127 78.7542 116.502 78.655 116.395 78.2401C116.287 77.8252 116.977 77.4732 117.186 77.8471L117.226 77.7995Z" fill="#FF7F50"/>
<path d="M95.5379 96.2386C95.5576 95.8581 95.0841 95.5512 94.7447 95.7245C94.4054 95.8977 94.3763 96.4612 94.696 96.6685C95.0158 96.8757 95.5183 96.6191 95.5379 96.2386Z" fill="#FF7F50"/>
<path d="M125.704 94.0574C125.33 93.9383 125.302 93.3175 125.648 93.1316C125.995 92.9458 126.475 93.2462 126.502 93.6383C126.34 93.8945 126.013 94.0348 125.716 93.976L125.704 94.0574Z" fill="#FF7F50"/>
<path d="M94.9266 80.4765C94.6755 80.1394 95.4571 79.8507 95.6345 80.2317C95.8119 80.6128 95.4971 81.0431 95.1551 81.2873C94.9067 81.1278 94.7742 80.8063 94.8381 80.5181L94.9266 80.4765Z" fill="#FF7F50"/>
<path d="M120.17 105.179C120.035 105.359 119.828 105.482 119.606 105.516C119.426 105.385 119.304 105.178 119.274 104.958C119.454 104.688 119.734 104.485 120.048 104.4C120.356 104.506 120.438 104.988 120.182 105.189L120.17 105.179Z" fill="#FF7F50"/>
<path d="M146.869 105.406C146.605 105.519 146.341 105.632 146.077 105.746C145.897 105.603 145.771 105.394 145.729 105.168C145.963 104.976 146.233 104.779 146.534 104.803C146.836 104.827 147.096 105.212 146.897 105.44L146.869 105.406Z" fill="#FF7F50"/>
<path d="M125.765 107.459C126.023 107.593 126.281 107.726 126.539 107.86C126.258 108.157 125.886 108.366 125.487 108.453C125.307 108.322 125.183 108.115 125.152 107.895C125.286 107.715 125.493 107.591 125.715 107.56L125.765 107.459Z" fill="#FF7F50"/>
<path d="M95.5064 107.665C95.7134 107.804 95.8057 108.091 95.7182 108.325C95.4068 108.619 94.7817 108.52 94.6745 108.105C94.5673 107.69 95.2569 107.338 95.4662 107.712L95.5064 107.665Z" fill="#FF7F50"/>
<path d="M116.587 96.5765C116.677 97.1166 117.709 96.9436 117.618 96.4036C117.528 95.8635 116.496 96.0365 116.587 96.5765Z" fill="#FF7F50"/>
<path d="M128.307 82.9194C128.794 82.8674 129.203 83.4875 128.964 83.9142C128.727 84.0962 128.343 84.0372 128.171 83.7925C128 83.5479 128.076 83.1666 128.328 83.0063L128.307 82.9194Z" fill="#FF7F50"/>
<path d="M92.2959 96.0935C92.5615 95.8284 93.0682 96.2291 92.9501 96.5853C92.832 96.9414 92.3401 97.0547 92.0049 96.886C91.7798 96.6281 91.9158 96.1538 92.2434 96.0546L92.2959 96.0935Z" fill="#FF7F50"/>
<path d="M116.66 89.6774C116.934 89.2868 117.692 89.5483 117.667 90.0246C117.447 90.3261 117.023 90.4606 116.67 90.3411C116.504 90.1606 116.498 89.8561 116.655 89.6686L116.66 89.6774Z" fill="#FF7F50"/>
<path d="M143.811 80.1823C143.995 80.3032 144.116 80.5149 144.128 80.735C143.935 81.2208 143.032 81.0451 143.036 80.5224C143.19 80.2629 143.519 80.1207 143.814 80.1861L143.811 80.1823Z" fill="#FF7F50"/>
<path d="M101.653 111.004C101.833 111.354 101.597 111.854 101.207 111.913C100.818 111.971 100.441 111.525 100.587 111.159C100.732 110.793 101.347 110.75 101.523 111.103L101.653 111.004Z" fill="#FF7F50"/>
<path d="M109.876 104.852C110.253 104.811 110.734 104.829 110.878 105.179C110.708 105.449 110.43 105.648 110.121 105.723C109.942 105.625 109.752 105.515 109.669 105.329C109.587 105.143 109.689 104.868 109.892 104.862L109.876 104.852Z" fill="#FF7F50"/>
<path d="M149.697 81.0844C150.058 80.9589 150.165 80.4027 149.876 80.1526C149.586 79.9025 149.051 80.0883 148.979 80.4639C148.907 80.8394 149.336 81.2098 149.697 81.0844Z" fill="#FF7F50"/>
<path d="M135.098 83.4617C135.5 83.707 135.246 84.4789 134.776 84.4366C134.508 84.3456 134.347 84.0199 134.437 83.7517C134.526 83.4834 134.851 83.3203 135.12 83.4086L135.098 83.4617Z" fill="#FF7F50"/>
<path d="M123.273 110.623C123.169 110.099 122.169 110.298 122.273 110.822C122.377 111.345 123.377 111.147 123.273 110.623Z" fill="#FF7F50"/>
<path d="M97.612 80.958C97.7161 81.4816 98.7161 81.2828 98.612 80.7592C98.508 80.2356 97.5079 80.4343 97.612 80.958Z" fill="#FF7F50"/>
<path d="M147.206 108.455C146.961 108.857 146.189 108.603 146.232 108.133C146.323 107.865 146.648 107.704 146.917 107.793C147.185 107.883 147.348 108.208 147.26 108.477L147.206 108.455Z" fill="#FF7F50"/>
<path d="M95.2681 77.0841C95.6585 76.9359 96.1141 77.4151 95.9462 77.7975C95.6012 77.9822 95.1644 77.9831 94.8185 77.8C94.864 77.5234 95.0452 77.2724 95.2934 77.1422L95.2681 77.0841Z" fill="#FF7F50"/>
<path d="M116.895 84.2485C116.71 84.1276 116.589 83.916 116.577 83.6958C116.77 83.21 117.673 83.3857 117.67 83.9084C117.515 84.1679 117.186 84.3101 116.892 84.2447L116.895 84.2485Z" fill="#FF7F50"/>
<path d="M134.436 102.69C134.262 102.374 134.558 101.92 134.918 101.947C135.278 101.974 135.504 102.46 135.297 102.756C135.089 103.051 134.561 103.009 134.399 102.687L134.436 102.69Z" fill="#FF7F50"/>
<path d="M125.152 86.8575C125.273 86.6732 125.484 86.5517 125.705 86.5402C126.19 86.7332 126.015 87.6359 125.492 87.6325C125.233 87.4782 125.09 87.1492 125.156 86.8545L125.152 86.8575Z" fill="#FF7F50"/>
<path d="M150.196 77.2307C150.222 77.4208 150.248 77.611 150.274 77.8012C149.924 77.9793 149.489 77.9806 149.138 77.8045C149.126 77.3063 149.756 76.9216 150.193 77.1598L150.196 77.2307Z" fill="#FF7F50"/>
<path d="M114.285 113.779C114.048 113.303 113.138 113.757 113.376 114.233C113.613 114.709 114.523 114.255 114.285 113.779Z" fill="#FF7F50"/>
<path d="M135.343 89.5553C134.967 89.1812 134.252 89.9004 134.629 90.2744C135.005 90.6485 135.72 89.9293 135.343 89.5553Z" fill="#FF7F50"/>
<path d="M126.05 77.3528C125.813 76.8767 124.903 77.3301 125.141 77.8062C125.378 78.2823 126.288 77.8289 126.05 77.3528Z" fill="#FF7F50"/>
<path d="M146.896 102.452C146.666 101.957 145.719 102.396 145.949 102.892C146.179 103.387 147.126 102.948 146.896 102.452Z" fill="#FF7F50"/>
<path d="M94.5039 102.346C94.7369 102.818 95.6392 102.373 95.4062 101.901C95.1732 101.428 94.2709 101.873 94.5039 102.346Z" fill="#FF7F50"/>
<path d="M131.933 111.285C131.812 111.469 131.601 111.591 131.38 111.602C130.895 111.409 131.07 110.506 131.593 110.51C131.853 110.664 131.995 110.993 131.929 111.288L131.933 111.285Z" fill="#FF7F50"/>
<path d="M114.39 96.0227C114.157 95.5503 113.254 95.9953 113.487 96.4677C113.72 96.9402 114.623 96.4952 114.39 96.0227Z" fill="#FF7F50"/>
<path d="M143.803 86.5176C144.09 86.8164 143.786 87.4189 143.376 87.3666C143.077 87.2803 142.913 86.8918 143.058 86.6177C143.204 86.3435 143.618 86.2622 143.856 86.4608L143.803 86.5176Z" fill="#FF7F50"/>
<path d="M122.434 117.398C122.284 117.247 122.134 117.097 121.984 116.947C122.263 116.5 123.025 116.491 123.314 116.932C123.17 117.269 122.794 117.493 122.428 117.458L122.434 117.398Z" fill="#FF7F50"/>
<path d="M150.376 84.0254C150.226 84.1754 150.075 84.3253 149.925 84.4753C149.478 84.1963 149.469 83.4345 149.91 83.1452C150.248 83.2895 150.471 83.6652 150.436 84.031L150.376 84.0254Z" fill="#FF7F50"/>
<path d="M107.052 83.4638C107.173 83.2795 107.384 83.158 107.605 83.1465C108.09 83.3395 107.915 84.2422 107.392 84.2388C107.132 84.0845 106.99 83.7555 107.056 83.4608L107.052 83.4638Z" fill="#FF7F50"/>
<path d="M96.0422 84.2568C95.7618 84.408 95.3644 84.2629 95.2473 83.9665C95.1303 83.6702 95.3211 83.2927 95.6292 83.2113C96.0414 83.2791 96.2668 83.8497 96.0123 84.1809L96.0422 84.2568Z" fill="#FF7F50"/>
<path d="M131.968 87.0797C131.965 86.5529 130.959 86.5572 130.961 87.084C130.964 87.6108 131.97 87.6065 131.968 87.0797Z" fill="#FF7F50"/>
<path d="M126.276 105.182C126.039 104.706 125.13 105.159 125.367 105.635C125.604 106.111 126.514 105.658 126.276 105.182Z" fill="#FF7F50"/>
<path d="M151.912 80.958C152.016 81.4816 153.016 81.2828 152.912 80.7592C152.808 80.2356 151.808 80.4343 151.912 80.958Z" fill="#FF7F50"/>
<path d="M122.083 96.0074C122.415 95.6593 123.071 95.7223 123.331 96.1271C123.145 96.3961 122.866 96.5996 122.553 96.6945C122.316 96.54 122.137 96.2991 122.058 96.0278L122.083 96.0074Z" fill="#FF7F50"/>
<path d="M143.091 95.9462C143.46 95.7261 144.012 95.9594 144.112 96.3775C143.898 96.6702 143.483 96.7972 143.142 96.6745C142.976 96.4955 142.969 96.1919 143.126 96.0054L143.091 95.9462Z" fill="#FF7F50"/>
<path d="M122.478 92.9481C122.345 92.7053 122.646 92.4058 122.92 92.4435C123.194 92.4813 123.393 92.7225 123.527 92.9648C123.32 93.3909 122.6 93.4063 122.375 92.9894L122.478 92.9481Z" fill="#FF7F50"/>
<path d="M152.414 98.964C152.659 98.5613 153.431 98.8158 153.389 99.2854C153.298 99.5533 152.972 99.7148 152.704 99.6251C152.435 99.5355 152.272 99.2106 152.361 98.9419L152.414 98.964Z" fill="#FF7F50"/>
<path d="M119.607 95.8014C119.923 95.6271 120.377 95.9233 120.35 96.2832C120.323 96.6431 119.836 96.8692 119.541 96.6619C119.246 96.4546 119.288 95.9262 119.61 95.764L119.607 95.8014Z" fill="#FF7F50"/>
<path d="M122.213 102.015C122.404 101.853 122.71 101.849 122.905 102.006C122.922 102.412 122.681 102.818 122.316 102.997C121.953 102.828 121.887 102.247 122.202 102L122.213 102.015Z" fill="#FF7F50"/>
<path d="M148.892 102.478C149.268 102.852 149.983 102.133 149.606 101.759C149.23 101.385 148.515 102.104 148.892 102.478Z" fill="#FF7F50"/>
<path d="M114.046 84.3793C113.616 84.0216 114.119 83.1641 114.641 83.3648C114.877 83.7675 114.527 84.3675 114.061 84.361L114.046 84.3793Z" fill="#FF7F50"/>
<path d="M114.163 80.6376C113.93 80.1652 113.028 80.6102 113.261 81.0826C113.494 81.5551 114.396 81.1101 114.163 80.6376Z" fill="#FF7F50"/>
<path d="M91.7784 81.3093C91.5986 81.1768 91.4753 80.97 91.4443 80.7488C91.6292 80.4815 91.9053 80.2785 92.2156 80.1819C92.5301 80.5611 92.2678 81.2464 91.7805 81.3187L91.7784 81.3093Z" fill="#FF7F50"/>
<path d="M143.375 105.806C143.019 105.805 142.748 105.359 142.917 105.045C143.086 104.732 143.615 104.717 143.797 105.022C143.979 105.328 143.705 105.789 143.349 105.771L143.375 105.806Z" fill="#FF7F50"/>
<path d="M149.481 74.4881C149.799 74.5922 150.079 74.8094 150.259 75.0919C150.005 75.4619 149.431 75.5598 149.069 75.2948C149.173 75.026 149.276 74.7572 149.38 74.4884L149.481 74.4881Z" fill="#FF7F50"/>
<path d="M119.606 102.014C119.611 101.701 119.945 101.439 120.25 101.508C120.555 101.577 120.744 101.957 120.614 102.242C120.262 102.482 119.719 102.366 119.495 102.003L119.606 102.014Z" fill="#FF7F50"/>
<path d="M125.092 90.0506C124.926 89.7345 125.188 89.2865 125.545 89.2758C125.902 89.2652 126.189 89.6969 126.043 90.0222C125.779 90.1985 125.409 90.1995 125.144 90.0246L125.092 90.0506Z" fill="#FF7F50"/>
<path d="M101.563 77.7017C101.453 78.1268 100.84 78.3137 100.512 78.0219C100.388 77.76 100.522 77.4023 100.794 77.3031C101.066 77.204 101.409 77.4119 101.43 77.7008L101.563 77.7017Z" fill="#FF7F50"/>
<path d="M97.3918 96.4909C97.2899 96.2293 97.4384 95.8984 97.7015 95.8005C97.9647 95.7026 98.2933 95.8561 98.3871 96.1207C98.3019 96.5352 97.7446 96.7655 97.3916 96.5322L97.3918 96.4909Z" fill="#FF7F50"/>
<path d="M107.163 102.577C106.984 102.441 106.86 102.234 106.823 102.012C107.01 101.828 107.196 101.644 107.383 101.46C107.866 101.666 107.689 102.563 107.164 102.57L107.163 102.577Z" fill="#FF7F50"/>
<path d="M98.1064 105.713C97.7485 105.844 97.4445 105.26 97.7086 104.985C97.9726 104.71 98.4877 104.85 98.6716 105.184C98.485 105.371 98.2984 105.558 98.1118 105.746L98.1064 105.713Z" fill="#FF7F50"/>
<path d="M97.6586 78.3702C97.3948 78.046 97.6922 77.4622 98.1095 77.485C98.3697 77.6396 98.5135 77.9682 98.4505 78.2642C98.2077 78.3827 97.9248 78.4172 97.6607 78.3606L97.6586 78.3702Z" fill="#FF7F50"/>
<path d="M141.09 93.077C141.409 93.1636 141.277 93.7169 140.953 93.7883C140.63 93.8598 140.321 93.6393 140.067 93.4265C140.293 93.1181 140.726 92.9796 141.089 93.0994L141.09 93.077Z" fill="#FF7F50"/>
<path d="M146.482 93.3708C146.306 93.2418 146.13 93.1128 145.954 92.9838C146.231 92.5194 147.018 92.5051 147.312 92.9591C147.154 93.2173 146.826 93.3586 146.53 93.2957L146.482 93.3708Z" fill="#FF7F50"/>
<path d="M151.903 78.2228C151.705 77.9454 151.967 77.4921 152.308 77.5046C152.649 77.5171 152.883 77.9516 152.727 78.2549C152.47 78.4341 152.102 78.4358 151.844 78.259L151.903 78.2228Z" fill="#FF7F50"/>
<path d="M131.937 96.5834C131.613 96.8462 131.03 96.5497 131.051 96.1323C131.159 95.9445 131.371 95.8211 131.588 95.8199C131.892 95.9285 132.082 96.2865 132.002 96.5995L131.937 96.5834Z" fill="#FF7F50"/>
<path d="M104.5 107.26C104.677 107.395 104.855 107.529 105.032 107.664C104.744 107.94 104.381 108.136 103.993 108.227C103.727 107.908 104.032 107.323 104.447 107.359L104.5 107.26Z" fill="#FF7F50"/>
<path d="M101.615 83.4617C101.378 82.9855 100.468 83.4389 100.706 83.9151C100.943 84.3912 101.852 83.9378 101.615 83.4617Z" fill="#FF7F50"/>
<path d="M97.5472 107.896C97.6825 107.716 97.8895 107.592 98.1116 107.558C98.2907 107.693 98.4147 107.9 98.4503 108.121C98.2626 108.309 98.0749 108.497 97.8871 108.684C97.6321 108.52 97.4927 108.194 97.5503 107.896L97.5472 107.896Z" fill="#FF7F50"/>
<path d="M119.284 78.0156C119.599 78.4028 120.339 77.7997 120.023 77.4125C119.707 77.0253 118.968 77.6284 119.284 78.0156Z" fill="#FF7F50"/>
<path d="M146.184 90.0278C146.157 89.5082 147.053 89.3008 147.257 89.7795C147.191 90.2566 146.44 90.4366 146.165 90.0413L146.184 90.0278Z" fill="#FF7F50"/>
<path d="M152.415 96.4708C152.23 96.8221 151.557 96.5083 151.707 96.1408C151.745 95.8559 152.103 95.6673 152.359 95.7974C152.616 95.9276 152.675 96.3282 152.467 96.5267L152.415 96.4708Z" fill="#FF7F50"/>
<path d="M122.994 86.9339C122.636 87.0649 122.332 86.4815 122.596 86.2065C122.86 85.9316 123.375 86.0709 123.559 86.4048C123.373 86.5921 123.186 86.7794 122.999 86.9667L122.994 86.9339Z" fill="#FF7F50"/>
<path d="M101.288 107.601C101.531 107.462 101.836 107.765 101.798 108.042C101.76 108.318 101.516 108.518 101.272 108.655C100.864 108.456 100.88 107.749 101.298 107.57L101.288 107.601Z" fill="#FF7F50"/>
<path d="M110 78.4874C109.885 78.0099 110.5 77.4592 110.856 77.7977C110.834 78.067 110.802 78.3597 110.612 78.5527C110.423 78.7457 110.022 78.7318 109.946 78.4726L110 78.4874Z" fill="#FF7F50"/>
<path d="M132.395 113.545C132.422 114.064 131.526 114.272 131.322 113.793C131.388 113.316 132.139 113.136 132.414 113.531L132.395 113.545Z" fill="#FF7F50"/>
<path d="M107.5 107.66C106.984 107.731 107.118 108.717 107.635 108.646C108.151 108.576 108.016 107.59 107.5 107.66Z" fill="#FF7F50"/>
<path d="M131.363 107.563C131.811 107.849 131.817 108.614 131.374 108.907C130.928 108.615 130.927 107.85 131.372 107.556L131.363 107.563Z" fill="#FF7F50"/>
<path d="M110.663 86.8511C110.306 87.093 109.758 86.9785 109.528 86.6137C109.763 86.4234 110.033 86.2265 110.335 86.2508C110.637 86.2751 110.897 86.6622 110.695 86.8884L110.663 86.8511Z" fill="#FF7F50"/>
<path d="M120.061 114.345C119.877 114.696 119.203 114.382 119.353 114.015C119.391 113.73 119.749 113.541 120.006 113.671C120.262 113.801 120.321 114.202 120.113 114.4L120.061 114.345Z" fill="#FF7F50"/>
<path d="M92.4502 90.3276C92.0922 90.4586 91.7882 89.8752 92.0523 89.6002C92.3163 89.3253 92.8314 89.4646 93.0153 89.7985C92.8287 89.9858 92.6421 90.1731 92.4555 90.3604L92.4502 90.3276Z" fill="#FF7F50"/>
<path d="M141.329 75.2033C141.144 75.5547 140.471 75.2408 140.621 74.8733C140.659 74.5884 141.017 74.3998 141.273 74.5299C141.529 74.6601 141.588 75.0607 141.38 75.2592L141.329 75.2033Z" fill="#FF7F50"/>
<path d="M128.511 80.5314C128.649 80.8885 128.509 81.3317 128.192 81.5458C127.984 81.2893 127.763 80.9826 127.833 80.6599C127.904 80.3373 128.461 80.2088 128.538 80.5298L128.511 80.5314Z" fill="#FF7F50"/>
<path d="M120.059 98.9568C120.322 99.2817 120.025 99.8645 119.608 99.8434C119.42 99.7353 119.297 99.5234 119.296 99.3067C119.404 99.0025 119.762 98.812 120.075 98.8918L120.059 98.9568Z" fill="#FF7F50"/>
<path d="M122.363 78.1456C122.332 78.6385 123.273 78.6975 123.304 78.2047C123.335 77.7118 122.394 77.6527 122.363 78.1456Z" fill="#FF7F50"/>
<path d="M137.93 86.289C138.11 86.4214 138.234 86.6289 138.264 86.8506C138.104 87.1074 137.777 87.2487 137.48 87.1898C137.212 86.8705 137.516 86.2828 137.931 86.3171L137.93 86.289Z" fill="#FF7F50"/>
<path d="M125.826 116.944C125.691 117.124 125.484 117.247 125.262 117.282C125.083 117.147 124.959 116.94 124.925 116.719C125.097 116.515 125.342 116.33 125.606 116.37C125.87 116.411 126.044 116.799 125.828 116.956L125.826 116.944Z" fill="#FF7F50"/>
<path d="M147.091 86.6204C146.862 86.9751 146.33 87.0875 145.977 86.8556C145.816 86.6144 146.071 86.2675 146.36 86.2457C146.649 86.2238 146.91 86.4164 147.107 86.6288L147.091 86.6204Z" fill="#FF7F50"/>
<path d="M103.942 84.0937C103.723 83.828 103.976 83.3516 104.321 83.3658C104.665 83.3801 104.887 83.8411 104.7 84.1309C104.514 84.4208 104.029 84.4287 103.815 84.1585L103.942 84.0937Z" fill="#FF7F50"/>
<path d="M114.048 111.064C114.115 111.243 114.076 111.457 113.951 111.603C113.604 111.765 113.114 111.437 113.201 111.063C113.287 110.69 113.976 110.702 113.995 111.085L114.048 111.064Z" fill="#FF7F50"/>
<path d="M143.596 102.318C143.344 102.296 143.325 101.883 143.534 101.739C143.743 101.595 144.023 101.642 144.271 101.696C144.389 101.853 144.431 102.065 144.381 102.255C144.137 102.37 143.854 102.402 143.59 102.344L143.596 102.318Z" fill="#FF7F50"/>
<path d="M119.606 83.3467C119.832 83.3465 120.059 83.3463 120.286 83.3461C120.392 83.5134 120.432 83.7217 120.395 83.9167C120.141 84.0183 119.847 84.1188 119.602 83.9939C119.358 83.869 119.342 83.4092 119.614 83.3781L119.606 83.3467Z" fill="#FF7F50"/>
<path d="M132.43 83.6003C132.254 83.1391 131.373 83.4759 131.549 83.9372C131.726 84.3984 132.606 84.0616 132.43 83.6003Z" fill="#FF7F50"/>
<path d="M146.203 84.3686C146.146 84.1133 146.2 83.8085 146.417 83.6613C146.633 83.514 147.006 83.6472 147.007 83.9089C146.966 84.1367 146.913 84.3866 146.728 84.5254C146.543 84.6641 146.196 84.5677 146.205 84.3366L146.203 84.3686Z" fill="#FF7F50"/>
<path d="M92.5009 84.5847C92.1451 84.7049 91.7436 84.281 91.883 83.9322C92.0224 83.5835 92.6054 83.553 92.7804 83.8853C92.6711 84.082 92.5618 84.2786 92.4525 84.4753L92.5009 84.5847Z" fill="#FF7F50"/>
<path d="M106.596 114.234C106.559 113.818 107.149 113.512 107.468 113.782C107.605 114.011 107.511 114.347 107.274 114.471C107.037 114.595 106.707 114.481 106.597 114.237L106.596 114.234Z" fill="#FF7F50"/>
<path d="M135.152 99.5758C135.513 99.2442 134.88 98.5537 134.518 98.8854C134.157 99.217 134.79 99.9074 135.152 99.5758Z" fill="#FF7F50"/>
<path d="M117.115 103.005C116.804 103.105 116.488 102.703 116.62 102.404C116.752 102.105 117.197 102.032 117.453 102.236C117.529 102.533 117.38 102.872 117.11 103.016L117.115 103.005Z" fill="#FF7F50"/>
<path d="M137.33 75.805C136.99 75.4727 137.497 74.7844 137.915 75.0109C138.242 75.333 137.756 75.9959 137.351 75.782L137.33 75.805Z" fill="#FF7F50"/>
<path d="M117.343 86.7296C116.963 86.7725 116.478 86.7466 116.333 86.3926C116.562 86.0967 116.982 85.9657 117.338 86.0797C117.503 86.2612 117.509 86.5652 117.353 86.7536L117.343 86.7296Z" fill="#FF7F50"/>
<path d="M134.409 80.4827C134.794 80.3236 135.255 80.8066 135.079 81.1832C134.898 81.3742 134.555 81.3764 134.372 81.1877C134.189 80.9991 134.201 80.6571 134.397 80.4817L134.409 80.4827Z" fill="#FF7F50"/>
<path d="M131.259 77.5783C131.394 77.3987 131.601 77.2749 131.823 77.2407C132.002 77.3751 132.126 77.5818 132.16 77.8036C132.025 77.9829 131.819 78.1065 131.597 78.1401C131.417 78.0062 131.293 77.7984 131.262 77.5762L131.259 77.5783Z" fill="#FF7F50"/>
<path d="M117.308 93.2292C117.066 93.643 116.346 93.6203 116.131 93.192C116.337 92.7629 117.06 92.7428 117.289 93.1599L117.308 93.2292Z" fill="#FF7F50"/>
<path d="M101.273 104.824C101.516 104.792 101.699 105.099 101.62 105.331C101.541 105.564 101.294 105.7 101.052 105.743C100.873 105.608 100.75 105.402 100.717 105.18C100.85 105 101.058 104.877 101.28 104.845L101.273 104.824Z" fill="#FF7F50"/>
<path d="M126.225 111.163C126.236 111.34 126.246 111.517 126.256 111.693C126.037 112.006 125.437 111.838 125.413 111.457C125.389 111.076 125.964 110.834 126.22 111.117L126.225 111.163Z" fill="#FF7F50"/>
<path d="M137.931 101.674C138.111 101.809 138.234 102.016 138.269 102.238C138.134 102.418 137.927 102.542 137.706 102.575C137.526 102.441 137.403 102.234 137.369 102.012C137.503 101.832 137.711 101.709 137.933 101.678L137.931 101.674Z" fill="#FF7F50"/>
<path d="M110.013 114.456C109.93 114.205 110 113.892 110.223 113.753C110.447 113.613 110.806 113.737 110.844 113.998C110.749 114.193 110.653 114.389 110.557 114.584C110.366 114.562 110.174 114.54 109.983 114.518L110.013 114.456Z" fill="#FF7F50"/>
<path d="M126.3 80.9721C126.326 81.2751 126.003 81.5533 125.707 81.482C125.411 81.4106 125.25 81.0155 125.412 80.7577C125.66 80.5196 126.148 80.6546 126.239 80.9866L126.3 80.9721Z" fill="#FF7F50"/>
<path d="M100.807 99.171C101.033 98.8429 101.673 99.1269 101.582 99.5144C101.487 99.7096 101.275 99.8421 101.058 99.8419C100.808 99.7462 100.685 99.4113 100.813 99.1765L100.807 99.171Z" fill="#FF7F50"/>
<path d="M146.549 80.1746C146.826 80.605 146.282 81.2579 145.809 81.0627C145.743 80.6378 146.101 80.1969 146.531 80.174L146.549 80.1746Z" fill="#FF7F50"/>
<path d="M97.5371 89.7973C97.5238 89.3743 98.1063 89.0759 98.4419 89.3337C98.6163 89.8025 97.8134 90.2209 97.5291 89.8093L97.5371 89.7973Z" fill="#FF7F50"/>
<path d="M151.956 89.4523C152.11 89.2504 152.396 89.1609 152.637 89.2392C152.749 89.3953 152.789 89.6003 152.744 89.7869C152.558 89.8957 152.371 90.0046 152.185 90.1134C151.938 90.0131 151.819 89.6805 151.946 89.4463L151.956 89.4523Z" fill="#FF7F50"/>
<path d="M128.782 77.5576C129.11 77.7833 128.826 78.4238 128.439 78.3323C128.243 78.2374 128.111 78.0255 128.111 77.8084C128.207 77.5586 128.542 77.4354 128.777 77.5637L128.782 77.5576Z" fill="#FF7F50"/>
<path d="M101.406 80.7252C101.734 80.9509 101.45 81.5914 101.062 81.4999C100.867 81.405 100.735 81.1931 100.735 80.976C100.83 80.7262 101.165 80.603 101.4 80.7313L101.406 80.7252Z" fill="#FF7F50"/>
<path d="M129.217 89.3415C128.974 89.693 128.44 89.8013 128.079 89.5725C128.072 89.0386 128.996 88.857 129.192 89.3537L129.217 89.3415Z" fill="#FF7F50"/>
<path d="M109.765 102.466C109.9 102.286 110.107 102.163 110.329 102.128C110.509 102.263 110.632 102.47 110.666 102.691C110.531 102.871 110.325 102.994 110.103 103.028C109.923 102.894 109.8 102.686 109.768 102.464L109.765 102.466Z" fill="#FF7F50"/>
<path d="M114.288 87.0788C114.152 87.2584 113.945 87.3822 113.723 87.4165C113.544 87.282 113.42 87.0753 113.386 86.8535C113.521 86.6742 113.728 86.5506 113.949 86.517C114.129 86.6509 114.253 86.8587 114.284 87.0809L114.288 87.0788Z" fill="#FF7F50"/>
<path d="M146.215 96.3711C146.393 95.9574 147.094 95.941 147.291 96.346C147.09 96.7793 146.362 96.8043 146.132 96.3859L146.215 96.3711Z" fill="#FF7F50"/>
<path d="M128.761 116.932C128.573 117.046 128.386 117.161 128.198 117.275C128.02 117.145 127.899 116.94 127.872 116.721C128.034 116.464 128.36 116.324 128.657 116.381C128.765 116.545 128.804 116.753 128.761 116.944L128.761 116.932Z" fill="#FF7F50"/>
<path d="M128.317 110.838C128.212 110.586 128.624 110.461 128.894 110.501C129.011 110.744 129.045 111.026 128.987 111.289C128.825 111.398 128.619 111.438 128.428 111.399C128.32 111.236 128.281 111.028 128.324 110.837L128.317 110.838Z" fill="#FF7F50"/>
<path d="M109.765 84.1396C109.9 83.96 110.107 83.8361 110.329 83.8019C110.509 83.9364 110.632 84.1431 110.666 84.3648C110.531 84.5442 110.325 84.6678 110.103 84.7014C109.923 84.5675 109.8 84.3597 109.768 84.1374L109.765 84.1396Z" fill="#FF7F50"/>
<path d="M140.644 89.4566C140.894 89.3459 141.022 89.7593 140.981 90.0292C140.739 90.147 140.457 90.1829 140.193 90.1297C140.086 89.9657 140.046 89.7591 140.084 89.5669C140.247 89.4587 140.455 89.4203 140.646 89.463L140.644 89.4566Z" fill="#FF7F50"/>
<path d="M101.607 86.8564C101.664 87.0447 101.628 87.2588 101.513 87.4184C101.317 87.4647 101.103 87.4245 100.937 87.3105C100.939 87.0834 100.941 86.8564 100.942 86.6293C101.133 86.384 101.614 86.5431 101.621 86.8538L101.607 86.8564Z" fill="#FF7F50"/>
<path d="M110.801 96.7088C110.576 97.0369 109.935 96.7529 110.027 96.3654C110.122 96.1702 110.334 96.0377 110.551 96.0379C110.801 96.1337 110.924 96.4685 110.795 96.7033L110.801 96.7088Z" fill="#FF7F50"/>
<path d="M104.776 86.2054C104.996 86.2538 105.078 86.5906 104.904 86.7342C104.528 86.7724 104.048 86.7526 103.904 86.4032C104.062 86.0912 104.505 85.9663 104.802 86.1499L104.776 86.2054Z" fill="#FF7F50"/>
<path d="M117.116 113.892C117.295 114.027 117.419 114.234 117.453 114.456C117.319 114.635 117.112 114.759 116.891 114.793C116.711 114.658 116.588 114.452 116.554 114.23C116.688 114.05 116.896 113.926 117.118 113.895L117.116 113.892Z" fill="#FF7F50"/>
<path d="M125.146 95.8983C125.433 95.6893 125.9 95.8155 126.043 96.1405C125.814 96.4357 125.394 96.5659 125.038 96.4516C124.886 96.2984 124.956 95.9932 125.16 95.922L125.146 95.8983Z" fill="#FF7F50"/>
<path d="M107.634 93.7676C107.408 94.0956 106.768 93.8117 106.859 93.4242C106.954 93.2289 107.166 93.0965 107.383 93.0966C107.633 93.1924 107.756 93.5272 107.628 93.7621L107.634 93.7676Z" fill="#FF7F50"/>
<path d="M125.726 101.892C125.48 101.514 124.758 101.984 125.004 102.362C125.25 102.74 125.972 102.27 125.726 101.892Z" fill="#FF7F50"/>
<path d="M101.549 96.2454C101.5 96.7187 100.676 96.8051 100.529 96.3523C100.692 95.988 101.275 95.9209 101.516 96.2388L101.549 96.2454Z" fill="#FF7F50"/>
<path d="M122.561 114.535C122.072 114.35 122.248 113.44 122.771 113.451C123.012 113.8 122.902 114.341 122.543 114.568L122.561 114.535Z" fill="#FF7F50"/>
<path d="M98.2913 86.8097C98.1187 86.6833 97.9461 86.557 97.7734 86.4307C97.9529 85.9961 98.691 85.9799 98.8892 86.4062C98.7614 86.586 98.5556 86.7083 98.3366 86.7348L98.2913 86.8097Z" fill="#FF7F50"/>
<path d="M131.482 104.722C131.813 104.948 131.749 105.55 131.377 105.701C130.928 105.552 131.009 104.737 131.479 104.68L131.482 104.722Z" fill="#FF7F50"/>
<path d="M146.292 78.3765C146.538 78.7542 147.259 78.2845 147.013 77.9067C146.768 77.529 146.046 77.9988 146.292 78.3765Z" fill="#FF7F50"/>
<path d="M125.173 113.565C125.354 113.151 126.058 113.138 126.254 113.546C126.064 113.96 125.352 113.956 125.167 113.54L125.173 113.565Z" fill="#FF7F50"/>
<path d="M113.541 77.7567C113.667 77.5841 113.793 77.4115 113.92 77.2389C114.354 77.4183 114.371 78.1564 113.944 78.3547C113.764 78.2268 113.642 78.0211 113.616 77.802L113.541 77.7567Z" fill="#FF7F50"/>
<path d="M140.661 86.7117C140.372 86.6649 140.408 86.1667 140.684 86.0679C140.959 85.9691 141.26 86.1618 141.429 86.4003C141.27 86.6566 140.943 86.7965 140.648 86.7348L140.661 86.7117Z" fill="#FF7F50"/>
<path d="M137.391 96.142C137.534 95.8221 137.988 95.6918 138.279 95.8868C138.367 96.1339 138.207 96.4393 137.954 96.5075C137.7 96.5756 137.409 96.3916 137.361 96.1336L137.391 96.142Z" fill="#FF7F50"/>
<path d="M110.542 92.6516C110.831 92.6985 110.794 93.1967 110.519 93.2954C110.244 93.3942 109.943 93.2016 109.773 92.9631C109.933 92.7068 110.259 92.5669 110.555 92.6285L110.542 92.6516Z" fill="#FF7F50"/>
<path d="M134.527 96.7027C134.773 97.0805 135.494 96.6107 135.248 96.2329C135.002 95.8552 134.281 96.325 134.527 96.7027Z" fill="#FF7F50"/>
<path d="M114.522 108.359C114.9 108.113 114.43 107.391 114.052 107.637C113.675 107.883 114.145 108.605 114.522 108.359Z" fill="#FF7F50"/>
<path d="M143.541 90.2034C143.369 90.077 143.196 89.9507 143.024 89.8244C143.203 89.3898 143.941 89.3736 144.139 89.7999C144.012 89.9797 143.806 90.1021 143.587 90.1285L143.541 90.2034Z" fill="#FF7F50"/>
<path d="M141.189 96.1157C141.007 96.5304 140.303 96.543 140.107 96.1351C140.298 95.721 141.009 95.7249 141.195 96.1412L141.189 96.1157Z" fill="#FF7F50"/>
<path d="M150.012 89.7807C149.831 90.1954 149.127 90.2081 148.931 89.8002C149.121 89.386 149.833 89.3899 150.019 89.8062L150.012 89.7807Z" fill="#FF7F50"/>
<path d="M106.506 105.364C106.63 105.105 106.753 104.846 106.877 104.587C107.123 104.756 107.346 105.038 107.276 105.329C107.206 105.619 106.694 105.702 106.634 105.409L106.506 105.364Z" fill="#FF7F50"/>
<path d="M152.822 86.8305C152.563 86.7069 152.304 86.5833 152.046 86.4597C152.215 86.2131 152.496 85.9901 152.787 86.0605C153.077 86.1308 153.16 86.6428 152.867 86.7022L152.822 86.8305Z" fill="#FF7F50"/>
<path d="M137.484 107.566C137.683 107.512 137.905 107.551 138.074 107.669C137.984 107.99 137.767 108.274 137.481 108.444C137.129 108.314 137.135 107.704 137.489 107.58L137.484 107.566Z" fill="#FF7F50"/>
<path d="M91.9905 93.2291C91.849 92.7149 92.8396 92.4556 92.9681 92.9733C92.8248 93.2829 92.3802 93.4023 92.1011 93.2061L91.9905 93.2291Z" fill="#FF7F50"/>
<path d="M92.0169 86.938C91.7281 86.8912 91.7642 86.393 92.0397 86.2942C92.3151 86.1954 92.616 86.3881 92.7855 86.6266C92.6261 86.8829 92.2993 87.0228 92.0039 86.9611L92.0169 86.938Z" fill="#FF7F50"/>
<path d="M135.123 104.726C135.11 104.953 134.968 105.169 134.765 105.271C134.348 105.08 134.353 104.364 134.772 104.177C134.95 104.306 135.072 104.511 135.099 104.73L135.123 104.726Z" fill="#FF7F50"/>
<path d="M98.1165 103.067C97.7746 103.071 97.7223 102.575 97.7909 102.24C97.9629 102.069 98.2741 102.067 98.4481 102.237C98.5238 102.533 98.3747 102.872 98.105 103.016L98.1165 103.067Z" fill="#FF7F50"/>
<path d="M138.241 105.187C138.13 104.745 137.285 104.956 137.396 105.399C137.507 105.841 138.352 105.63 138.241 105.187Z" fill="#FF7F50"/>
<path d="M137.803 81.3958C137.559 81.5334 137.294 81.1371 137.438 80.8965C137.581 80.6559 137.907 80.6027 138.186 80.6274C138.3 80.9223 138.109 81.2951 137.804 81.3758L137.803 81.3958Z" fill="#FF7F50"/>
<path d="M128.642 86.3167C128.931 86.3635 128.894 86.8617 128.619 86.9605C128.344 87.0592 128.043 86.8666 127.873 86.6281C128.033 86.3718 128.359 86.2319 128.655 86.2936L128.642 86.3167Z" fill="#FF7F50"/>
<path d="M95.6355 89.5281C95.7771 90.0423 94.7865 90.3015 94.658 89.7839C94.8013 89.4743 95.2459 89.3549 95.525 89.5511L95.6355 89.5281Z" fill="#FF7F50"/>
<path d="M110.774 98.9587C111.003 99.2124 110.888 99.6842 110.568 99.8042C110.063 99.6892 110.309 98.7216 110.808 98.8616L110.774 98.9587Z" fill="#FF7F50"/>
<path d="M119.875 89.2229C119.906 89.4153 119.937 89.6077 119.968 89.8001C119.681 90.0146 119.208 89.8923 119.061 89.5655C119.213 89.3086 119.541 89.1693 119.832 89.2374L119.875 89.2229Z" fill="#FF7F50"/>
<path d="M104.115 111.515C103.649 111.626 103.583 110.774 103.989 110.519C104.356 110.689 104.43 111.271 104.117 111.527L104.115 111.515Z" fill="#FF7F50"/>
<path d="M114.388 116.861C114.677 116.907 114.641 117.406 114.365 117.504C114.09 117.603 113.789 117.411 113.619 117.172C113.779 116.916 114.106 116.776 114.401 116.837L114.388 116.861Z" fill="#FF7F50"/>
<path d="M137.807 89.3456C137.863 89.5334 137.828 89.7457 137.715 89.906C137.419 89.9743 137.076 89.8414 136.935 89.5715C137.094 89.2594 137.536 89.1342 137.835 89.3169L137.807 89.3456Z" fill="#FF7F50"/>
<path d="M136.915 77.8067C137.042 77.6238 137.252 77.5015 137.474 77.4824C137.82 77.6249 137.822 78.2185 137.477 78.3638C137.29 78.177 137.102 77.9903 136.914 77.8035L136.915 77.8067Z" fill="#FF7F50"/>
<path d="M101.165 89.7871C100.912 90.0158 100.44 89.9007 100.32 89.581C100.435 89.0764 101.403 89.3225 101.262 89.8207L101.165 89.7871Z" fill="#FF7F50"/>
<path d="M126.179 99.2569C126.321 99.7711 125.33 100.03 125.202 99.5127C125.345 99.2031 125.79 99.0836 126.069 99.2799L126.179 99.2569Z" fill="#FF7F50"/>
<path d="M131.019 80.4935C131.264 80.3768 131.594 80.4992 131.704 80.7476C131.518 80.9321 131.333 81.1165 131.148 81.301C130.843 81.187 130.767 80.7104 131.02 80.5068L131.019 80.4935Z" fill="#FF7F50"/>
<path d="M134.183 78.2821C133.958 78.1251 133.955 77.7391 134.177 77.5784C134.4 77.4177 134.765 77.5417 134.844 77.8045C134.713 78.05 134.47 78.2324 134.197 78.2885L134.183 78.2821Z" fill="#FF7F50"/>
<path d="M134.913 108.122C134.889 108.436 134.409 108.586 134.21 108.342C134.108 108.045 134.298 107.71 134.566 107.545C134.682 107.73 134.797 107.915 134.912 108.1L134.913 108.122Z" fill="#FF7F50"/>
<path d="M155.576 84.0138C155.388 84.0694 155.176 84.0346 155.016 83.9221C154.947 83.6253 155.08 83.2827 155.35 83.1417C155.662 83.3004 155.788 83.743 155.605 84.0417L155.576 84.0138Z" fill="#FF7F50"/>
<path d="M122.318 84.0283C122.105 83.7477 122.228 83.2807 122.551 83.1408C122.806 83.2972 122.946 83.6222 122.883 83.9149C122.72 84.0223 122.512 84.0604 122.322 84.0181L122.318 84.0283Z" fill="#FF7F50"/>
<path d="M137.297 83.6393C137.425 83.4646 137.553 83.29 137.68 83.1154C137.958 83.2579 138.113 83.6032 138.037 83.9056C137.853 84.1559 137.366 83.9952 137.367 83.6846L137.297 83.6393Z" fill="#FF7F50"/>
<path d="M140.871 111.405C140.658 111.124 140.781 110.657 141.104 110.517C141.359 110.674 141.498 110.999 141.435 111.291C141.272 111.399 141.065 111.437 140.874 111.394L140.871 111.405Z" fill="#FF7F50"/>
<path d="M106.934 89.917C106.789 89.718 106.871 89.3958 107.093 89.2897C107.315 89.1835 107.617 89.3222 107.681 89.5598C107.589 89.8685 107.222 90.064 106.915 89.9672L106.934 89.917Z" fill="#FF7F50"/>
<path d="M104.263 113.122C104.52 113.245 104.778 113.368 105.035 113.49C104.89 113.779 104.542 113.949 104.225 113.887C104.064 113.698 104.056 113.396 104.207 113.199L104.263 113.122Z" fill="#FF7F50"/>
<path d="M128.926 113.883C128.955 114.074 128.984 114.264 129.013 114.454C128.851 114.568 128.637 114.603 128.447 114.546C128.116 114.287 128.539 113.639 128.91 113.838L128.926 113.883Z" fill="#FF7F50"/>
<path d="M138.065 111.288C138.049 111.516 137.908 111.731 137.705 111.836C137.439 111.695 137.295 111.357 137.377 111.067C137.562 110.819 138.047 110.981 138.044 111.291L138.065 111.288Z" fill="#FF7F50"/>
<path d="M131.823 89.9077C131.675 90.0476 131.526 90.1875 131.377 90.3274C131.066 90.2637 130.947 89.7902 131.19 89.5865C131.433 89.3829 131.878 89.5835 131.886 89.9005L131.823 89.9077Z" fill="#FF7F50"/>
<path d="M152.733 83.6913C152.865 84.0363 152.561 84.4671 152.192 84.4587C151.876 84.1234 152.35 83.4675 152.767 83.6622L152.733 83.6913Z" fill="#FF7F50"/>
<path d="M152.641 93.5284C152.388 93.6346 152.263 93.2204 152.303 92.9491C152.588 92.7447 153.049 92.8736 153.187 93.1963C153.059 93.375 152.854 93.4963 152.636 93.5224L152.641 93.5284Z" fill="#FF7F50"/>
<path d="M98.4451 83.9112C98.5014 84.247 98.0664 84.5464 97.7728 84.374C97.7617 84.128 97.7648 83.8464 97.9492 83.683C98.1335 83.5196 98.5253 83.683 98.435 83.9121L98.4451 83.9112Z" fill="#FF7F50"/>
<path d="M134.315 114.341C134.132 114.215 134.01 114.005 133.991 113.783C134.133 113.437 134.727 113.434 134.872 113.779C134.685 113.967 134.499 114.155 134.312 114.343L134.315 114.341Z" fill="#FF7F50"/>
<path d="M113.724 105.518C113.545 105.383 113.421 105.176 113.386 104.954C113.522 104.774 113.728 104.651 113.95 104.616C114.169 104.892 114.039 105.366 113.711 105.493L113.724 105.518Z" fill="#FF7F50"/>
<path d="M134.299 93.7664C134.122 93.4795 134.41 93.0427 134.743 93.0921C135.077 93.35 134.66 94.0037 134.286 93.8094L134.299 93.7664Z" fill="#FF7F50"/>
<path d="M98.7536 92.9134C98.9686 93.2925 98.2963 93.74 98.0295 93.3953C97.7978 93.076 98.416 92.6723 98.6774 92.9679L98.7536 92.9134Z" fill="#FF7F50"/>
<path d="M143.591 74.9899C143.771 74.9203 143.989 74.9622 144.131 75.0935C144.283 75.3749 143.969 75.7703 143.66 75.6849C143.352 75.5994 143.285 75.0984 143.561 74.9356L143.591 74.9899Z" fill="#FF7F50"/>
<path d="M141.112 104.602C141.289 104.889 141.001 105.326 140.668 105.276C140.334 105.019 140.751 104.365 141.126 104.559L141.112 104.602Z" fill="#FF7F50"/>
<path d="M131.48 93.8533C131.183 93.9914 130.998 93.5127 131.035 93.1876C131.195 92.998 131.538 93.0162 131.677 93.2217C131.816 93.4271 131.704 93.7521 131.469 93.8295L131.48 93.8533Z" fill="#FF7F50"/>
<path d="M110.791 89.6739C110.93 89.8801 110.838 90.202 110.611 90.3032C110.384 90.4045 110.082 90.2583 110.022 90.0173C110.166 89.7573 110.496 89.6167 110.784 89.6928L110.791 89.6739Z" fill="#FF7F50"/>
<path d="M114.069 90.0644C113.879 90.0947 113.689 90.1249 113.498 90.1552C113.309 89.8745 113.608 89.4261 113.94 89.4931C114.162 89.5425 114.243 89.8843 114.066 90.0283L114.069 90.0644Z" fill="#FF7F50"/>
<path d="M107.17 81.3176C106.764 81.4196 106.818 80.6787 107.154 80.4285C107.51 80.5477 107.508 81.1649 107.152 81.2826L107.17 81.3176Z" fill="#FF7F50"/>
<path d="M104.233 104.828C104.41 105.115 104.122 105.552 103.789 105.503C103.455 105.245 103.873 104.591 104.247 104.785L104.233 104.828Z" fill="#FF7F50"/>
<path d="M100.637 93.5936C100.761 93.4378 100.884 93.2819 101.007 93.1261C101.291 93.1375 101.482 93.5154 101.324 93.7506C101.165 93.9857 100.743 93.9499 100.626 93.6913L100.637 93.5936Z" fill="#FF7F50"/>
<path d="M134.517 86.5261C134.392 86.2865 134.518 85.9511 134.77 85.8536C134.951 85.9743 135.072 86.181 135.088 86.398C135.013 86.6141 134.689 86.6879 134.527 86.5258L134.517 86.5261Z" fill="#FF7F50"/>
<path d="M103.747 93.5397C103.621 93.3002 103.748 92.9647 104 92.8673C104.181 92.9879 104.302 93.1947 104.318 93.4117C104.243 93.6278 103.918 93.7016 103.757 93.5394L103.747 93.5397Z" fill="#FF7F50"/>
<path d="M155.625 80.6276C155.655 80.826 155.685 81.0244 155.715 81.2228C155.517 81.2617 155.32 81.3006 155.123 81.3395C154.937 81.0444 155.229 80.5892 155.575 80.6355L155.625 80.6276Z" fill="#FF7F50"/>
<path d="M107.409 96.0061C107.571 96.3094 107.274 96.7395 106.933 96.6952C106.828 96.5285 106.788 96.3218 106.824 96.1282C106.988 96.0201 107.196 95.9816 107.387 96.0243L107.409 96.0061Z" fill="#FF7F50"/>
<path d="M106.949 87.1613C106.593 87.0554 106.583 86.44 106.935 86.3223C107.287 86.4388 107.279 87.0555 106.923 87.1625L106.949 87.1613Z" fill="#FF7F50"/>
<path d="M107.509 111.284C107.53 111.502 107.379 111.726 107.169 111.788C106.892 111.754 106.734 111.369 106.906 111.15C107.079 110.931 107.49 110.996 107.587 111.257L107.509 111.284Z" fill="#FF7F50"/>
<path d="M110.082 108.472C109.956 108.233 110.083 107.897 110.335 107.8C110.516 107.92 110.637 108.127 110.653 108.344C110.578 108.56 110.253 108.634 110.092 108.472L110.082 108.472Z" fill="#FF7F50"/>
<path d="M107.033 77.5808C107.056 77.2412 107.457 76.9017 107.718 77.121C107.753 77.3424 107.754 77.6002 107.59 77.7534C107.426 77.9067 107.071 77.792 107.117 77.5724L107.033 77.5808Z" fill="#FF7F50"/>
<path d="M137.816 99.7283C137.601 99.8348 137.338 99.5756 137.385 99.3403C137.433 99.105 137.688 98.9579 137.928 98.9555C138.126 99.1838 138.071 99.5822 137.82 99.7492L137.816 99.7283Z" fill="#FF7F50"/>
<path d="M113.531 101.963C113.656 101.81 113.781 101.658 113.906 101.506C114.174 101.494 114.379 101.842 114.241 102.071C114.102 102.301 113.698 102.28 113.584 102.037L113.531 101.963Z" fill="#FF7F50"/>
<path d="M131.821 99.8529C131.628 99.9018 131.416 99.8697 131.246 99.766C131.248 99.4618 131.513 99.1403 131.811 99.2037C132.108 99.2671 132.107 99.829 131.804 99.8127L131.821 99.8529Z" fill="#FF7F50"/>
<path d="M128.87 92.6585C129.126 92.729 129.257 93.0762 129.111 93.2982C128.897 93.3496 128.661 93.2993 128.486 93.1651C128.605 92.9767 128.724 92.7883 128.844 92.6L128.87 92.6585Z" fill="#FF7F50"/>
<path d="M107.037 98.8039C107.406 98.7902 107.225 99.3975 106.933 99.6232C106.74 99.3971 106.8 99.0044 107.051 98.8458L107.037 98.8039Z" fill="#FF7F50"/>
<path d="M143.47 98.8442C143.765 98.9869 143.688 99.5243 143.365 99.5779C142.98 99.5026 143.094 98.7758 143.483 98.8215L143.47 98.8442Z" fill="#FF7F50"/>
<path d="M122.174 89.8707C121.989 89.77 122.105 89.4504 122.309 89.4014C122.514 89.3524 122.717 89.4702 122.895 89.5832C122.886 89.8929 122.394 90.0367 122.219 89.7807L122.174 89.8707Z" fill="#FF7F50"/>
<path d="M114.176 99.632C114.034 99.9268 113.496 99.8493 113.443 99.5262C113.518 99.1422 114.245 99.2558 114.199 99.6445L114.176 99.632Z" fill="#FF7F50"/>
<path d="M98.0198 110.62C98.103 110.354 98.5621 110.346 98.6537 110.609C98.5634 110.873 98.1027 110.867 98.02 110.6L98.0198 110.62Z" fill="#FF7F50"/>
<path d="M110.237 116.728C110.321 116.462 110.78 116.455 110.871 116.718C110.781 116.982 110.32 116.975 110.238 116.709L110.237 116.728Z" fill="#FF7F50"/>
<path d="M155.43 77.7889C155.367 78.042 155.026 78.1765 154.807 78.0346C154.699 77.8311 154.783 77.5357 154.998 77.4534C155.214 77.3712 155.491 77.5809 155.44 77.8057L155.43 77.7889Z" fill="#FF7F50"/>
<path d="M149.421 108.539C149.269 108.414 149.116 108.289 148.964 108.165C148.953 107.897 149.3 107.691 149.53 107.83C149.759 107.969 149.738 108.372 149.495 108.486L149.421 108.539Z" fill="#FF7F50"/>
<path d="M143.476 111.523C143.254 111.424 143.336 111.012 143.579 111.006C143.903 111.016 143.732 111.688 143.484 111.479L143.476 111.523Z" fill="#FF7F50"/>
<path d="M111.152 324.283C96.9101 311.273 84.8553 295.875 75.6432 278.928C71.7576 271.78 68.2851 263.748 69.7395 255.743C72.4601 240.769 66.8374 225.723 62.4082 211.163C57.979 196.603 54.8412 180.161 61.9659 166.713C50.727 177.077 46.2197 192.781 43.8102 207.878C38.2243 242.878 41.3681 279.238 52.8786 312.76C39.3633 288.019 38.832 258.418 40.1136 230.256C41.1109 208.342 43.5616 185.005 57.3275 167.925C36.1348 185.209 29.6863 214.385 25.01 241.329C20.619 266.629 16.7107 293.182 24.8521 317.536C17.1707 303.375 18.4252 286.241 20.011 270.209C23.6585 233.334 29.2748 193.625 55.1039 167.055C61.9355 160.027 70.2741 154.069 79.8438 151.954C87.2593 150.314 94.4033 147.453 100.901 143.521C102.467 134.35 93.8372 127.128 87.8079 120.041C81.0561 112.105 76.8441 102.04 75.9308 91.6608C75.3901 85.5168 74.1002 77.1457 67.938 76.8838C62.8727 76.6684 59.0594 70.5564 61.0927 65.9122C63.1261 61.268 70.2037 59.9244 73.7976 63.5002C68.6711 44.2806 79.5011 22.1055 97.8109 14.3318C94.8254 10.0622 101.342 4.94544 106.516 5.55693C111.689 6.16842 116.697 9.29357 121.778 8.13897C120.036 5.07338 122.826 1.00037 126.263 0.215105C129.7 -0.570164 133.227 0.921894 136.31 2.63224C156.099 13.6112 169.176 35.7522 169.239 58.3829C169.75 54.2521 175.949 52.8376 178.981 55.6894C182.013 58.5412 181.869 63.6455 179.716 67.2078C177.563 70.7702 173.894 73.109 170.262 75.1422C170.353 90.1497 164.646 105.119 154.586 116.256C147.266 124.36 136.895 132.956 139.297 143.609C143.191 142.748 147.131 147.24 145.768 150.988C162.464 149.598 178.045 159.675 189.873 171.539C207.213 188.932 219.676 211.137 225.491 234.999C226.507 239.167 232.436 240.304 236.105 238.08C239.774 235.856 241.659 231.65 243.331 227.7C254.34 201.684 265.349 175.668 276.358 149.653C272.673 127.01 275.951 128.271 277.676 117.683C282.395 105.376 281.493 94.2565 283.402 82.5432C283.921 79.3535 286.152 75.1444 289.098 76.4742C290.588 77.1467 291.113 78.9626 291.431 80.5659C293.217 89.5763 293.788 98.8267 293.123 107.988C296.934 101.469 300.745 94.9501 304.556 88.4311C306.642 84.8632 311.249 80.8679 314.141 83.8196C315.73 85.4409 315.312 88.1008 314.657 90.2741C312.571 97.1873 309.172 103.702 304.693 109.366C310.731 111.425 317.725 114.553 318.782 120.844C319.22 123.453 318.481 126.109 317.605 128.606C314.559 137.287 309.747 145.343 303.55 152.141C304.972 151.283 305.902 153.836 305.619 155.473C298.821 194.806 282.254 232.414 257.821 263.978C250.611 273.294 240.829 282.901 229.101 281.802C221.76 281.115 215.557 276.297 209.813 271.674C203.628 266.696 197.444 261.718 191.259 256.74C205.656 259.956 213.673 277.915 228.318 279.688C240.225 281.129 250.22 271.157 257.416 261.562C280.898 230.253 296.936 193.399 303.842 154.877C294.452 156.453 284.678 155.684 275.65 152.658C266.692 180.432 255.411 207.455 241.962 233.354C239.638 237.831 235.503 243.034 230.729 241.406C228.592 240.678 227.148 238.716 225.943 236.806C213.909 217.72 211.113 192.269 193.561 178.089C200.635 221.961 189.482 266.573 176.858 309.181C186.522 275.98 192.41 241.681 194.37 207.158C194.819 199.232 195.044 191.132 192.801 183.517C190.558 175.901 185.437 168.736 178.004 165.948C173.163 197.434 144.807 220.855 137.632 251.893C131.83 276.99 122.913 301.366 111.152 324.283ZM140.299 238.091C151.087 217.582 165.23 198.807 174.011 177.363C176.008 172.487 177.655 166.692 174.94 162.176C173.96 160.546 172.5 159.27 171.064 158.023C168.793 156.051 166.303 153.983 163.305 153.739C159.327 153.415 155.878 156.391 153.318 159.453C147.113 166.879 143.105 175.855 139.294 184.751C130.178 206.03 121.705 227.687 116.375 250.214C111.046 272.742 108.921 296.256 112.586 319.113C117.227 298.151 132.832 280.39 134.971 259.028C135.323 255.509 135.3 251.938 136.065 248.485C136.877 244.822 138.552 241.412 140.299 238.091ZM161.655 44.532C160.195 41.7156 158.372 39.0217 155.879 37.0589C150.327 32.6865 142.509 32.675 135.562 33.9743C131.122 34.8048 126.766 36.0856 122.582 37.7905C121.49 38.2356 120.33 38.7195 119.17 38.5086C118.01 38.2977 116.966 37.0466 117.441 35.9674C117.533 35.7598 117.675 35.5671 117.699 35.3415C117.767 34.7098 116.964 34.3935 116.335 34.3029C106.774 32.9244 96.5942 34.5365 88.5572 39.8943C80.5202 45.252 74.9562 54.5944 75.254 64.249C75.3208 66.4154 76.95 68.1879 78.585 69.6108C81.0857 71.7872 83.8415 73.6702 86.7779 75.209C88.0961 75.8997 89.9041 76.4477 90.9117 75.3525C92.9101 73.1802 96.2297 73.0113 99.1807 73.0745C109.438 73.2941 119.75 74.4775 129.918 73.1108C136.112 72.2783 142.145 70.5106 148.316 69.5159C150.206 69.2112 152.157 68.9814 154.02 69.4227C155.883 69.864 157.662 71.1031 158.255 72.9234C160.658 70.2086 162.818 67.2797 164.703 64.1827C165.268 63.2536 165.817 62.2873 166.027 61.22C166.212 60.2725 166.12 59.2941 165.995 58.3368C165.363 53.5302 163.887 48.8356 161.655 44.532ZM146.272 111.973C149.892 110.385 151.926 106.536 153.295 102.828C156.559 93.9905 157.608 84.3449 156.32 75.0126C156.191 74.0746 156.018 73.0916 155.419 72.3576C154.472 71.1947 152.777 71.0145 151.279 71.0756C147.753 71.2191 144.323 72.1905 140.892 73.0097C133.666 74.7344 126.264 75.8066 118.836 75.8315C111.495 75.8561 104.166 74.8604 96.83 75.1453C95.3698 75.202 93.8261 75.3389 92.641 76.1938C90.7621 77.5492 90.4318 80.1752 90.3567 82.4907C90.0711 91.2936 91.11 100.138 93.4277 108.636C93.5669 109.146 93.7239 109.679 94.0952 110.056C94.4956 110.462 95.0765 110.62 95.6241 110.78C104.487 113.376 112.153 120.809 121.366 120.168C128.199 119.692 133.945 114.79 140.635 113.314C142.525 112.896 144.499 112.75 146.272 111.973ZM70.5077 257.391C69.9579 265.379 74.4773 272.733 78.8235 279.457C83.2231 286.263 87.6228 293.069 92.0224 299.876C85.5336 278.28 82.4726 255.805 80.3908 233.352C78.217 209.908 77.1376 185.858 83.5484 163.202C84.5657 159.607 85.7846 156.029 87.7525 152.853C81.8515 152.699 75.5734 153.151 70.7597 156.568C67.6303 158.789 65.409 162.085 63.7636 165.552C58.6793 176.265 58.6668 188.768 60.9146 200.411C63.1624 212.055 67.5229 223.166 70.9397 234.521C71.9326 237.821 72.8548 241.209 72.734 244.653C72.5827 248.967 70.8042 253.084 70.5077 257.391ZM99.1701 114.255C96.1287 113.086 92.4395 112.133 91.23 109.108C90.6621 107.687 90.8003 106.098 90.6366 104.577C90.4729 103.056 89.8352 101.388 88.4124 100.826C84.9842 99.471 81.6956 97.7631 78.6158 95.7377C80.1438 104.723 84.2125 113.262 90.2284 120.109C93.2413 123.538 96.7341 126.558 99.4039 130.261C102.074 133.963 103.889 138.622 102.906 143.079C102.593 144.5 104.634 145.118 106.088 145.084C115.748 144.856 125.407 144.586 135.064 144.274C136.701 144.222 137.666 142.31 137.628 140.673C137.59 139.036 136.93 137.454 136.952 135.817C136.983 133.411 138.459 131.286 139.96 129.406C144.408 123.835 149.602 118.906 154.226 113.48C158.849 108.054 162.968 101.976 164.727 95.0674C161.667 100.228 155.212 102.889 152.818 108.39C151.46 111.513 148.174 113.35 144.92 114.354C141.667 115.358 138.218 115.766 135.112 117.162C133.52 117.878 132.051 118.841 130.492 119.626C125.014 122.385 118.413 122.822 112.619 120.811C107.902 119.174 103.831 116.045 99.1701 114.255ZM292.61 127.902C295.966 127.703 300.02 129.008 302.243 126.486C302.752 125.909 303.088 125.114 302.904 124.367C302.652 123.349 301.582 122.79 300.607 122.405C294.383 119.947 287.416 119.406 280.887 120.874C278.613 121.386 277.284 123.485 276.786 125.762C276.288 128.038 276.409 130.503 276.786 132.803C277.744 138.645 278.703 144.487 279.661 150.328C279.704 150.591 279.751 150.864 279.899 151.086C280.121 151.419 280.525 151.573 280.904 151.702C285.621 153.309 290.639 154.026 295.617 153.804C297.597 153.715 299.737 153.402 301.127 151.989C307.927 145.075 312.898 136.378 315.404 127.01C314.04 128.231 312.287 129.181 310.461 129.04C308.635 128.899 306.861 127.345 306.98 125.518C303.48 128.215 299.356 131.07 295.029 130.174C291.72 129.489 288.067 130.955 286.15 133.738C284.981 133.431 285.431 131.622 286.282 130.763C287.948 129.082 290.247 128.042 292.61 127.902ZM91.6213 179.9C89.3298 180.257 87.049 180.684 84.7868 181.195C83.1958 181.554 81.302 182.285 81.0961 183.903C80.6856 187.128 80.4628 190.378 80.4292 193.629C97.73 189.548 116.1 190.097 133.127 195.203C134.936 190.964 136.745 186.726 138.554 182.488C123.32 178.362 107.217 177.474 91.6213 179.9ZM155.54 154.475C152.802 153.026 149.614 152.445 146.541 152.833C145.935 152.909 145.254 153.077 144.961 153.614C143.795 155.758 141.244 156.685 138.885 157.31C127.012 160.454 114.477 160.384 102.308 158.725C100.045 158.417 97.752 158.043 95.6966 157.048C93.6412 156.054 91.8242 154.344 91.2141 152.144C89.5943 152.12 88.6213 153.889 88.0457 155.404C86.3049 159.983 84.8005 164.653 83.5404 169.388C103.27 164.918 124.121 165.496 143.572 171.052C145.429 168.785 146.807 166.128 147.59 163.305C147.956 161.987 148.967 160.964 149.94 160.003C151.807 158.16 153.674 156.318 155.54 154.475ZM123.316 221.232C125.222 217.016 126.841 212.669 128.158 208.233C112.968 205.717 97.4119 205.422 82.1375 207.361C81.4896 207.443 80.7709 207.569 80.3795 208.092C80.0352 208.552 80.0529 209.179 80.0857 209.752C80.2485 212.597 80.4114 215.442 80.5742 218.286C80.6179 219.051 80.9825 220.084 81.7324 219.929C95.44 217.103 109.812 217.553 123.316 221.232ZM312.792 90.6761C313.227 89.5966 313.645 88.4618 313.55 87.3019C313.456 86.142 312.7 84.9535 311.556 84.7384C310.843 84.6042 310.108 84.8626 309.49 85.2435C307.977 86.1775 307.028 87.7807 306.139 89.3212C302.114 96.2955 298.088 103.27 294.063 110.244C293.541 111.148 292.033 110.868 291.46 109.995C290.888 109.122 290.964 107.993 291.045 106.952C291.722 98.2286 291.214 89.4144 289.54 80.8267C289.436 80.2934 289.32 79.7422 288.999 79.3037C288.069 78.0328 285.9 78.4744 284.964 79.7407C284.028 81.007 283.973 82.6981 283.961 84.2726C283.868 96.2675 283.981 108.688 279.136 119.661C284.057 117.751 289.598 117.475 294.685 118.887C295.412 119.089 296.165 119.327 296.907 119.186C297.648 119.046 298.352 118.371 298.223 117.627C297.738 114.842 299.737 112.31 301.495 110.095C306.167 104.209 309.985 97.6468 312.792 90.6761ZM144.023 148.108C143.687 146.734 142.455 145.471 141.045 145.597C126.664 146.885 112.201 147.251 97.7734 146.692C96.9193 146.659 96.02 146.633 95.2623 147.028C94.7273 147.307 94.3094 147.78 94.0257 148.313C92.8744 150.474 94.0434 153.293 96.0061 154.757C97.9689 156.221 100.497 156.649 102.927 156.956C113.533 158.294 124.342 158.153 134.871 156.304C137.145 155.904 139.477 155.395 141.359 154.058C143.24 152.722 144.569 150.351 144.023 148.108ZM118.385 236.171C118.468 235.883 118.548 235.557 118.396 235.299C118.235 235.023 117.881 234.941 117.566 234.888C106.134 232.949 94.4326 233.902 82.8766 234.86C82.5497 234.887 82.178 234.939 81.9943 235.21C81.8511 235.422 81.8715 235.7 81.8975 235.954C82.2323 239.235 82.5672 242.516 82.902 245.797C82.9663 246.427 83.2331 247.244 83.8654 247.211C93.9141 246.698 104.011 247.144 113.976 248.539C114.609 248.628 114.99 247.872 115.168 247.259C116.24 243.563 117.312 239.867 118.385 236.171ZM111.832 265.69C111.881 265.218 111.91 264.68 111.583 264.336C111.333 264.073 110.945 264.004 110.586 263.954C102.763 262.865 94.8148 263.638 86.9549 264.413C86.562 264.452 86.1076 264.529 85.918 264.875C85.7879 265.113 85.8292 265.404 85.874 265.671C86.4013 268.814 86.9285 271.958 87.4558 275.101C87.5317 275.553 87.7709 276.134 88.2245 276.066C95.7218 274.949 103.7 274.62 110.557 277.851C110.982 273.797 111.407 269.744 111.832 265.69ZM80.3845 94.5216C83.2167 96.4667 86.3259 98.0079 89.5888 99.0842C88.1682 92.532 87.8899 85.7338 88.7702 79.0875C88.8815 78.2472 87.9351 77.7042 87.154 77.375C82.5853 75.4492 78.4389 72.5287 75.0868 68.8756C75.4331 75.8093 76.1826 82.7229 77.3304 89.5698C77.5025 90.5968 77.6947 91.6519 78.2507 92.5323C78.7737 93.3604 79.5772 93.9671 80.3845 94.5216ZM155.88 101.561C158.923 99.0891 161.587 96.1734 163.946 93.0418C165.218 91.3523 166.417 89.5723 167.122 87.5781C167.83 85.5733 168.014 83.4239 168.098 81.2992C168.319 75.7378 167.895 70.1511 166.836 64.6869C164.393 68.0056 161.951 71.3243 159.508 74.643C159.133 75.1523 158.749 75.6802 158.605 76.2959C158.489 76.7895 158.536 77.3046 158.577 77.8099C159.23 85.8018 158.308 93.9191 155.88 101.561ZM108.686 304.518C109.221 304.626 109.466 303.879 109.479 303.333C109.557 300.072 109.634 296.811 109.712 293.55C109.719 293.256 109.723 292.95 109.596 292.685C109.362 292.195 108.773 292.009 108.248 291.872C105.279 291.1 102.267 290.323 99.2003 290.36C96.6527 290.391 94.13 290.985 91.583 290.922C91.2944 290.915 90.918 290.963 90.8573 291.245C90.8362 291.343 90.864 291.444 90.8917 291.54C92.0156 295.442 93.4952 299.241 95.3061 302.874C95.5434 303.351 95.827 303.862 96.3228 304.055C96.6726 304.191 97.0634 304.141 97.4358 304.094C101.176 303.626 104.992 303.77 108.686 304.518ZM169.791 59.6324C169.209 60.533 168.693 61.5174 168.598 62.5857C168.539 63.241 168.641 63.8988 168.743 64.5488C169.136 67.0535 169.529 69.5583 169.922 72.063C169.945 72.2085 169.971 72.3625 170.068 72.4734C170.296 72.7337 170.719 72.5955 171.027 72.4389C172.271 71.8073 173.529 71.1662 174.579 70.2479C175.421 69.5114 176.107 68.6152 176.753 67.702C178.104 65.7934 179.344 63.6647 179.432 61.3282C179.52 58.9917 178.086 56.4518 175.786 56.0298C173.351 55.5831 171.136 57.5535 169.791 59.6324ZM63.9709 64.5923C63.0376 65.4101 62.6996 66.7088 62.5445 67.94C62.4025 69.0673 62.378 70.2415 62.769 71.3084C63.3083 72.7802 64.5903 73.8834 66.0089 74.5503C67.4275 75.2171 68.99 75.5031 70.5324 75.7828C71.2937 75.9209 72.055 76.0589 72.8164 76.197C73.005 76.2312 73.228 76.2552 73.3614 76.1175C73.4722 76.0032 73.472 75.8247 73.4649 75.6657C73.3391 72.8462 73.2133 70.0267 73.0875 67.2073C73.034 66.0095 72.1777 64.9544 71.1222 64.3856C70.0667 63.8169 68.8379 63.6639 67.6393 63.6333C66.3451 63.6004 64.9446 63.7391 63.9709 64.5923ZM308.676 112.839C308.116 112.227 307.289 111.947 306.495 111.709C305.653 111.457 304.744 111.226 303.908 111.501C302.96 111.813 302.334 112.7 301.833 113.563C301.076 114.869 300.449 116.25 299.962 117.679C299.79 118.185 299.634 118.716 299.706 119.246C299.778 119.776 300.139 120.302 300.664 120.4C302.808 120.802 304.681 122.419 305.394 124.481C306.39 122.393 307.386 120.306 308.382 118.219C308.794 117.356 309.211 116.477 309.353 115.53C309.494 114.584 309.322 113.544 308.676 112.839ZM316.14 117.21C315.12 116.251 313.423 116.318 312.244 117.073C311.064 117.828 310.33 119.118 309.855 120.435C309.315 121.936 309.052 123.535 309.084 125.13C309.091 125.51 309.119 125.904 309.295 126.242C309.718 127.057 310.836 127.239 311.727 127.015C313.673 126.523 314.969 124.715 315.931 122.953C316.427 122.046 316.888 121.093 317.017 120.067C317.146 119.041 316.894 117.918 316.14 117.21ZM110.889 320.778C110.41 318.011 109.932 315.243 109.453 312.476C109.397 312.154 109.323 311.8 109.06 311.605C108.888 311.477 108.666 311.443 108.453 311.415C105.986 311.095 103.48 311.078 101.009 311.367C103.925 314.871 107.248 318.036 110.889 320.778Z" fill="#333333"/>
</svg>
